<?xml version="1.0" encoding="utf-8" standalone="no"?>
<!DOCTYPE svg PUBLIC "-//W3C//DTD SVG 1.1//EN"
  "http://www.w3.org/Graphics/SVG/1.1/DTD/svg11.dtd">
<svg xmlns:xlink="http://www.w3.org/1999/xlink" width="460.8pt" height="345.6pt" viewBox="0 0 460.8 345.6" xmlns="http://www.w3.org/2000/svg" version="1.1">
 <metadata>
  <rdf:RDF xmlns:dc="http://purl.org/dc/elements/1.1/" xmlns:cc="http://creativecommons.org/ns#" xmlns:rdf="http://www.w3.org/1999/02/22-rdf-syntax-ns#">
   <cc:Work>
    <dc:type rdf:resource="http://purl.org/dc/dcmitype/StillImage"/>
    <dc:date>2025-08-18T15:05:37.143672</dc:date>
    <dc:format>image/svg+xml</dc:format>
    <dc:creator>
     <cc:Agent>
      <dc:title>Matplotlib v3.10.3, https://matplotlib.org/</dc:title>
     </cc:Agent>
    </dc:creator>
   </cc:Work>
  </rdf:RDF>
 </metadata>
 <defs>
  <style type="text/css">*{stroke-linejoin: round; stroke-linecap: butt}</style>
 </defs>
 <g id="figure_1">
  <g id="patch_1">
   <path d="M 0 345.6 
L 460.8 345.6 
L 460.8 0 
L 0 0 
z
" style="fill: #ffffff"/>
  </g>
  <g id="axes_1">
   <g id="patch_2">
    <path d="M 73.728 290.304 
L 414.72 290.304 
L 414.72 17.28 
L 73.728 17.28 
z
" style="fill: #ffffff"/>
   </g>
   <g id="matplotlib.axis_1">
    <g id="xtick_1">
     <g id="line2d_1">
      <path d="M 89.227636 290.304 
L 89.227636 17.28 
" clip-path="url(#pea169cccdf)" style="fill: none; stroke: #b0b0b0; stroke-width: 0.8; stroke-linecap: square"/>
     </g>
     <g id="line2d_2">
      <defs>
       <path id="ma3bb4e158a" d="M 0 0 
L 0 3.5 
" style="stroke: #000000; stroke-width: 0.8"/>
      </defs>
      <g>
       <use xlink:href="#ma3bb4e158a" x="89.227636" y="290.304" style="stroke: #000000; stroke-width: 0.8"/>
      </g>
     </g>
     <g id="text_1">
      <!-- 0 -->
      <g transform="translate(84.137636 309.4615) scale(0.16 -0.16)">
       <defs>
        <path id="DejaVuSans-30" d="M 2034 4250 
Q 1547 4250 1301 3770 
Q 1056 3291 1056 2328 
Q 1056 1369 1301 889 
Q 1547 409 2034 409 
Q 2525 409 2770 889 
Q 3016 1369 3016 2328 
Q 3016 3291 2770 3770 
Q 2525 4250 2034 4250 
z
M 2034 4750 
Q 2819 4750 3233 4129 
Q 3647 3509 3647 2328 
Q 3647 1150 3233 529 
Q 2819 -91 2034 -91 
Q 1250 -91 836 529 
Q 422 1150 422 2328 
Q 422 3509 836 4129 
Q 1250 4750 2034 4750 
z
" transform="scale(0.015625)"/>
       </defs>
       <use xlink:href="#DejaVuSans-30"/>
      </g>
     </g>
    </g>
    <g id="xtick_2">
     <g id="line2d_3">
      <path d="M 151.102432 290.304 
L 151.102432 17.28 
" clip-path="url(#pea169cccdf)" style="fill: none; stroke: #b0b0b0; stroke-width: 0.8; stroke-linecap: square"/>
     </g>
     <g id="line2d_4">
      <g>
       <use xlink:href="#ma3bb4e158a" x="151.102432" y="290.304" style="stroke: #000000; stroke-width: 0.8"/>
      </g>
     </g>
     <g id="text_2">
      <!-- 100 -->
      <g transform="translate(135.832432 309.4615) scale(0.16 -0.16)">
       <defs>
        <path id="DejaVuSans-31" d="M 794 531 
L 1825 531 
L 1825 4091 
L 703 3866 
L 703 4441 
L 1819 4666 
L 2450 4666 
L 2450 531 
L 3481 531 
L 3481 0 
L 794 0 
L 794 531 
z
" transform="scale(0.015625)"/>
       </defs>
       <use xlink:href="#DejaVuSans-31"/>
       <use xlink:href="#DejaVuSans-30" transform="translate(63.623047 0)"/>
       <use xlink:href="#DejaVuSans-30" transform="translate(127.246094 0)"/>
      </g>
     </g>
    </g>
    <g id="xtick_3">
     <g id="line2d_5">
      <path d="M 212.977228 290.304 
L 212.977228 17.28 
" clip-path="url(#pea169cccdf)" style="fill: none; stroke: #b0b0b0; stroke-width: 0.8; stroke-linecap: square"/>
     </g>
     <g id="line2d_6">
      <g>
       <use xlink:href="#ma3bb4e158a" x="212.977228" y="290.304" style="stroke: #000000; stroke-width: 0.8"/>
      </g>
     </g>
     <g id="text_3">
      <!-- 200 -->
      <g transform="translate(197.707228 309.4615) scale(0.16 -0.16)">
       <defs>
        <path id="DejaVuSans-32" d="M 1228 531 
L 3431 531 
L 3431 0 
L 469 0 
L 469 531 
Q 828 903 1448 1529 
Q 2069 2156 2228 2338 
Q 2531 2678 2651 2914 
Q 2772 3150 2772 3378 
Q 2772 3750 2511 3984 
Q 2250 4219 1831 4219 
Q 1534 4219 1204 4116 
Q 875 4013 500 3803 
L 500 4441 
Q 881 4594 1212 4672 
Q 1544 4750 1819 4750 
Q 2544 4750 2975 4387 
Q 3406 4025 3406 3419 
Q 3406 3131 3298 2873 
Q 3191 2616 2906 2266 
Q 2828 2175 2409 1742 
Q 1991 1309 1228 531 
z
" transform="scale(0.015625)"/>
       </defs>
       <use xlink:href="#DejaVuSans-32"/>
       <use xlink:href="#DejaVuSans-30" transform="translate(63.623047 0)"/>
       <use xlink:href="#DejaVuSans-30" transform="translate(127.246094 0)"/>
      </g>
     </g>
    </g>
    <g id="xtick_4">
     <g id="line2d_7">
      <path d="M 274.852024 290.304 
L 274.852024 17.28 
" clip-path="url(#pea169cccdf)" style="fill: none; stroke: #b0b0b0; stroke-width: 0.8; stroke-linecap: square"/>
     </g>
     <g id="line2d_8">
      <g>
       <use xlink:href="#ma3bb4e158a" x="274.852024" y="290.304" style="stroke: #000000; stroke-width: 0.8"/>
      </g>
     </g>
     <g id="text_4">
      <!-- 300 -->
      <g transform="translate(259.582024 309.4615) scale(0.16 -0.16)">
       <defs>
        <path id="DejaVuSans-33" d="M 2597 2516 
Q 3050 2419 3304 2112 
Q 3559 1806 3559 1356 
Q 3559 666 3084 287 
Q 2609 -91 1734 -91 
Q 1441 -91 1130 -33 
Q 819 25 488 141 
L 488 750 
Q 750 597 1062 519 
Q 1375 441 1716 441 
Q 2309 441 2620 675 
Q 2931 909 2931 1356 
Q 2931 1769 2642 2001 
Q 2353 2234 1838 2234 
L 1294 2234 
L 1294 2753 
L 1863 2753 
Q 2328 2753 2575 2939 
Q 2822 3125 2822 3475 
Q 2822 3834 2567 4026 
Q 2313 4219 1838 4219 
Q 1578 4219 1281 4162 
Q 984 4106 628 3988 
L 628 4550 
Q 988 4650 1302 4700 
Q 1616 4750 1894 4750 
Q 2613 4750 3031 4423 
Q 3450 4097 3450 3541 
Q 3450 3153 3228 2886 
Q 3006 2619 2597 2516 
z
" transform="scale(0.015625)"/>
       </defs>
       <use xlink:href="#DejaVuSans-33"/>
       <use xlink:href="#DejaVuSans-30" transform="translate(63.623047 0)"/>
       <use xlink:href="#DejaVuSans-30" transform="translate(127.246094 0)"/>
      </g>
     </g>
    </g>
    <g id="xtick_5">
     <g id="line2d_9">
      <path d="M 336.72682 290.304 
L 336.72682 17.28 
" clip-path="url(#pea169cccdf)" style="fill: none; stroke: #b0b0b0; stroke-width: 0.8; stroke-linecap: square"/>
     </g>
     <g id="line2d_10">
      <g>
       <use xlink:href="#ma3bb4e158a" x="336.72682" y="290.304" style="stroke: #000000; stroke-width: 0.8"/>
      </g>
     </g>
     <g id="text_5">
      <!-- 400 -->
      <g transform="translate(321.45682 309.4615) scale(0.16 -0.16)">
       <defs>
        <path id="DejaVuSans-34" d="M 2419 4116 
L 825 1625 
L 2419 1625 
L 2419 4116 
z
M 2253 4666 
L 3047 4666 
L 3047 1625 
L 3713 1625 
L 3713 1100 
L 3047 1100 
L 3047 0 
L 2419 0 
L 2419 1100 
L 313 1100 
L 313 1709 
L 2253 4666 
z
" transform="scale(0.015625)"/>
       </defs>
       <use xlink:href="#DejaVuSans-34"/>
       <use xlink:href="#DejaVuSans-30" transform="translate(63.623047 0)"/>
       <use xlink:href="#DejaVuSans-30" transform="translate(127.246094 0)"/>
      </g>
     </g>
    </g>
    <g id="xtick_6">
     <g id="line2d_11">
      <path d="M 398.601616 290.304 
L 398.601616 17.28 
" clip-path="url(#pea169cccdf)" style="fill: none; stroke: #b0b0b0; stroke-width: 0.8; stroke-linecap: square"/>
     </g>
     <g id="line2d_12">
      <g>
       <use xlink:href="#ma3bb4e158a" x="398.601616" y="290.304" style="stroke: #000000; stroke-width: 0.8"/>
      </g>
     </g>
     <g id="text_6">
      <!-- 500 -->
      <g transform="translate(383.331616 309.4615) scale(0.16 -0.16)">
       <defs>
        <path id="DejaVuSans-35" d="M 691 4666 
L 3169 4666 
L 3169 4134 
L 1269 4134 
L 1269 2991 
Q 1406 3038 1543 3061 
Q 1681 3084 1819 3084 
Q 2600 3084 3056 2656 
Q 3513 2228 3513 1497 
Q 3513 744 3044 326 
Q 2575 -91 1722 -91 
Q 1428 -91 1123 -41 
Q 819 9 494 109 
L 494 744 
Q 775 591 1075 516 
Q 1375 441 1709 441 
Q 2250 441 2565 725 
Q 2881 1009 2881 1497 
Q 2881 1984 2565 2268 
Q 2250 2553 1709 2553 
Q 1456 2553 1204 2497 
Q 953 2441 691 2322 
L 691 4666 
z
" transform="scale(0.015625)"/>
       </defs>
       <use xlink:href="#DejaVuSans-35"/>
       <use xlink:href="#DejaVuSans-30" transform="translate(63.623047 0)"/>
       <use xlink:href="#DejaVuSans-30" transform="translate(127.246094 0)"/>
      </g>
     </g>
    </g>
    <g id="text_7">
     <!-- N'th sorted pattern in recieved power -->
     <g transform="translate(93.9065 328.9465) scale(0.16 -0.16)">
      <defs>
       <path id="DejaVuSans-4e" d="M 628 4666 
L 1478 4666 
L 3547 763 
L 3547 4666 
L 4159 4666 
L 4159 0 
L 3309 0 
L 1241 3903 
L 1241 0 
L 628 0 
L 628 4666 
z
" transform="scale(0.015625)"/>
       <path id="DejaVuSans-27" d="M 1147 4666 
L 1147 2931 
L 616 2931 
L 616 4666 
L 1147 4666 
z
" transform="scale(0.015625)"/>
       <path id="DejaVuSans-74" d="M 1172 4494 
L 1172 3500 
L 2356 3500 
L 2356 3053 
L 1172 3053 
L 1172 1153 
Q 1172 725 1289 603 
Q 1406 481 1766 481 
L 2356 481 
L 2356 0 
L 1766 0 
Q 1100 0 847 248 
Q 594 497 594 1153 
L 594 3053 
L 172 3053 
L 172 3500 
L 594 3500 
L 594 4494 
L 1172 4494 
z
" transform="scale(0.015625)"/>
       <path id="DejaVuSans-68" d="M 3513 2113 
L 3513 0 
L 2938 0 
L 2938 2094 
Q 2938 2591 2744 2837 
Q 2550 3084 2163 3084 
Q 1697 3084 1428 2787 
Q 1159 2491 1159 1978 
L 1159 0 
L 581 0 
L 581 4863 
L 1159 4863 
L 1159 2956 
Q 1366 3272 1645 3428 
Q 1925 3584 2291 3584 
Q 2894 3584 3203 3211 
Q 3513 2838 3513 2113 
z
" transform="scale(0.015625)"/>
       <path id="DejaVuSans-20" transform="scale(0.015625)"/>
       <path id="DejaVuSans-73" d="M 2834 3397 
L 2834 2853 
Q 2591 2978 2328 3040 
Q 2066 3103 1784 3103 
Q 1356 3103 1142 2972 
Q 928 2841 928 2578 
Q 928 2378 1081 2264 
Q 1234 2150 1697 2047 
L 1894 2003 
Q 2506 1872 2764 1633 
Q 3022 1394 3022 966 
Q 3022 478 2636 193 
Q 2250 -91 1575 -91 
Q 1294 -91 989 -36 
Q 684 19 347 128 
L 347 722 
Q 666 556 975 473 
Q 1284 391 1588 391 
Q 1994 391 2212 530 
Q 2431 669 2431 922 
Q 2431 1156 2273 1281 
Q 2116 1406 1581 1522 
L 1381 1569 
Q 847 1681 609 1914 
Q 372 2147 372 2553 
Q 372 3047 722 3315 
Q 1072 3584 1716 3584 
Q 2034 3584 2315 3537 
Q 2597 3491 2834 3397 
z
" transform="scale(0.015625)"/>
       <path id="DejaVuSans-6f" d="M 1959 3097 
Q 1497 3097 1228 2736 
Q 959 2375 959 1747 
Q 959 1119 1226 758 
Q 1494 397 1959 397 
Q 2419 397 2687 759 
Q 2956 1122 2956 1747 
Q 2956 2369 2687 2733 
Q 2419 3097 1959 3097 
z
M 1959 3584 
Q 2709 3584 3137 3096 
Q 3566 2609 3566 1747 
Q 3566 888 3137 398 
Q 2709 -91 1959 -91 
Q 1206 -91 779 398 
Q 353 888 353 1747 
Q 353 2609 779 3096 
Q 1206 3584 1959 3584 
z
" transform="scale(0.015625)"/>
       <path id="DejaVuSans-72" d="M 2631 2963 
Q 2534 3019 2420 3045 
Q 2306 3072 2169 3072 
Q 1681 3072 1420 2755 
Q 1159 2438 1159 1844 
L 1159 0 
L 581 0 
L 581 3500 
L 1159 3500 
L 1159 2956 
Q 1341 3275 1631 3429 
Q 1922 3584 2338 3584 
Q 2397 3584 2469 3576 
Q 2541 3569 2628 3553 
L 2631 2963 
z
" transform="scale(0.015625)"/>
       <path id="DejaVuSans-65" d="M 3597 1894 
L 3597 1613 
L 953 1613 
Q 991 1019 1311 708 
Q 1631 397 2203 397 
Q 2534 397 2845 478 
Q 3156 559 3463 722 
L 3463 178 
Q 3153 47 2828 -22 
Q 2503 -91 2169 -91 
Q 1331 -91 842 396 
Q 353 884 353 1716 
Q 353 2575 817 3079 
Q 1281 3584 2069 3584 
Q 2775 3584 3186 3129 
Q 3597 2675 3597 1894 
z
M 3022 2063 
Q 3016 2534 2758 2815 
Q 2500 3097 2075 3097 
Q 1594 3097 1305 2825 
Q 1016 2553 972 2059 
L 3022 2063 
z
" transform="scale(0.015625)"/>
       <path id="DejaVuSans-64" d="M 2906 2969 
L 2906 4863 
L 3481 4863 
L 3481 0 
L 2906 0 
L 2906 525 
Q 2725 213 2448 61 
Q 2172 -91 1784 -91 
Q 1150 -91 751 415 
Q 353 922 353 1747 
Q 353 2572 751 3078 
Q 1150 3584 1784 3584 
Q 2172 3584 2448 3432 
Q 2725 3281 2906 2969 
z
M 947 1747 
Q 947 1113 1208 752 
Q 1469 391 1925 391 
Q 2381 391 2643 752 
Q 2906 1113 2906 1747 
Q 2906 2381 2643 2742 
Q 2381 3103 1925 3103 
Q 1469 3103 1208 2742 
Q 947 2381 947 1747 
z
" transform="scale(0.015625)"/>
       <path id="DejaVuSans-70" d="M 1159 525 
L 1159 -1331 
L 581 -1331 
L 581 3500 
L 1159 3500 
L 1159 2969 
Q 1341 3281 1617 3432 
Q 1894 3584 2278 3584 
Q 2916 3584 3314 3078 
Q 3713 2572 3713 1747 
Q 3713 922 3314 415 
Q 2916 -91 2278 -91 
Q 1894 -91 1617 61 
Q 1341 213 1159 525 
z
M 3116 1747 
Q 3116 2381 2855 2742 
Q 2594 3103 2138 3103 
Q 1681 3103 1420 2742 
Q 1159 2381 1159 1747 
Q 1159 1113 1420 752 
Q 1681 391 2138 391 
Q 2594 391 2855 752 
Q 3116 1113 3116 1747 
z
" transform="scale(0.015625)"/>
       <path id="DejaVuSans-61" d="M 2194 1759 
Q 1497 1759 1228 1600 
Q 959 1441 959 1056 
Q 959 750 1161 570 
Q 1363 391 1709 391 
Q 2188 391 2477 730 
Q 2766 1069 2766 1631 
L 2766 1759 
L 2194 1759 
z
M 3341 1997 
L 3341 0 
L 2766 0 
L 2766 531 
Q 2569 213 2275 61 
Q 1981 -91 1556 -91 
Q 1019 -91 701 211 
Q 384 513 384 1019 
Q 384 1609 779 1909 
Q 1175 2209 1959 2209 
L 2766 2209 
L 2766 2266 
Q 2766 2663 2505 2880 
Q 2244 3097 1772 3097 
Q 1472 3097 1187 3025 
Q 903 2953 641 2809 
L 641 3341 
Q 956 3463 1253 3523 
Q 1550 3584 1831 3584 
Q 2591 3584 2966 3190 
Q 3341 2797 3341 1997 
z
" transform="scale(0.015625)"/>
       <path id="DejaVuSans-6e" d="M 3513 2113 
L 3513 0 
L 2938 0 
L 2938 2094 
Q 2938 2591 2744 2837 
Q 2550 3084 2163 3084 
Q 1697 3084 1428 2787 
Q 1159 2491 1159 1978 
L 1159 0 
L 581 0 
L 581 3500 
L 1159 3500 
L 1159 2956 
Q 1366 3272 1645 3428 
Q 1925 3584 2291 3584 
Q 2894 3584 3203 3211 
Q 3513 2838 3513 2113 
z
" transform="scale(0.015625)"/>
       <path id="DejaVuSans-69" d="M 603 3500 
L 1178 3500 
L 1178 0 
L 603 0 
L 603 3500 
z
M 603 4863 
L 1178 4863 
L 1178 4134 
L 603 4134 
L 603 4863 
z
" transform="scale(0.015625)"/>
       <path id="DejaVuSans-63" d="M 3122 3366 
L 3122 2828 
Q 2878 2963 2633 3030 
Q 2388 3097 2138 3097 
Q 1578 3097 1268 2742 
Q 959 2388 959 1747 
Q 959 1106 1268 751 
Q 1578 397 2138 397 
Q 2388 397 2633 464 
Q 2878 531 3122 666 
L 3122 134 
Q 2881 22 2623 -34 
Q 2366 -91 2075 -91 
Q 1284 -91 818 406 
Q 353 903 353 1747 
Q 353 2603 823 3093 
Q 1294 3584 2113 3584 
Q 2378 3584 2631 3529 
Q 2884 3475 3122 3366 
z
" transform="scale(0.015625)"/>
       <path id="DejaVuSans-76" d="M 191 3500 
L 800 3500 
L 1894 563 
L 2988 3500 
L 3597 3500 
L 2284 0 
L 1503 0 
L 191 3500 
z
" transform="scale(0.015625)"/>
       <path id="DejaVuSans-77" d="M 269 3500 
L 844 3500 
L 1563 769 
L 2278 3500 
L 2956 3500 
L 3675 769 
L 4391 3500 
L 4966 3500 
L 4050 0 
L 3372 0 
L 2619 2869 
L 1863 0 
L 1184 0 
L 269 3500 
z
" transform="scale(0.015625)"/>
      </defs>
      <use xlink:href="#DejaVuSans-4e"/>
      <use xlink:href="#DejaVuSans-27" transform="translate(74.804688 0)"/>
      <use xlink:href="#DejaVuSans-74" transform="translate(102.294922 0)"/>
      <use xlink:href="#DejaVuSans-68" transform="translate(141.503906 0)"/>
      <use xlink:href="#DejaVuSans-20" transform="translate(204.882812 0)"/>
      <use xlink:href="#DejaVuSans-73" transform="translate(236.669922 0)"/>
      <use xlink:href="#DejaVuSans-6f" transform="translate(288.769531 0)"/>
      <use xlink:href="#DejaVuSans-72" transform="translate(349.951172 0)"/>
      <use xlink:href="#DejaVuSans-74" transform="translate(391.064453 0)"/>
      <use xlink:href="#DejaVuSans-65" transform="translate(430.273438 0)"/>
      <use xlink:href="#DejaVuSans-64" transform="translate(491.796875 0)"/>
      <use xlink:href="#DejaVuSans-20" transform="translate(555.273438 0)"/>
      <use xlink:href="#DejaVuSans-70" transform="translate(587.060547 0)"/>
      <use xlink:href="#DejaVuSans-61" transform="translate(650.537109 0)"/>
      <use xlink:href="#DejaVuSans-74" transform="translate(711.816406 0)"/>
      <use xlink:href="#DejaVuSans-74" transform="translate(751.025391 0)"/>
      <use xlink:href="#DejaVuSans-65" transform="translate(790.234375 0)"/>
      <use xlink:href="#DejaVuSans-72" transform="translate(851.757812 0)"/>
      <use xlink:href="#DejaVuSans-6e" transform="translate(891.121094 0)"/>
      <use xlink:href="#DejaVuSans-20" transform="translate(954.5 0)"/>
      <use xlink:href="#DejaVuSans-69" transform="translate(986.287109 0)"/>
      <use xlink:href="#DejaVuSans-6e" transform="translate(1014.070312 0)"/>
      <use xlink:href="#DejaVuSans-20" transform="translate(1077.449219 0)"/>
      <use xlink:href="#DejaVuSans-72" transform="translate(1109.236328 0)"/>
      <use xlink:href="#DejaVuSans-65" transform="translate(1148.099609 0)"/>
      <use xlink:href="#DejaVuSans-63" transform="translate(1209.623047 0)"/>
      <use xlink:href="#DejaVuSans-69" transform="translate(1264.603516 0)"/>
      <use xlink:href="#DejaVuSans-65" transform="translate(1292.386719 0)"/>
      <use xlink:href="#DejaVuSans-76" transform="translate(1353.910156 0)"/>
      <use xlink:href="#DejaVuSans-65" transform="translate(1413.089844 0)"/>
      <use xlink:href="#DejaVuSans-64" transform="translate(1474.613281 0)"/>
      <use xlink:href="#DejaVuSans-20" transform="translate(1538.089844 0)"/>
      <use xlink:href="#DejaVuSans-70" transform="translate(1569.876953 0)"/>
      <use xlink:href="#DejaVuSans-6f" transform="translate(1633.353516 0)"/>
      <use xlink:href="#DejaVuSans-77" transform="translate(1694.535156 0)"/>
      <use xlink:href="#DejaVuSans-65" transform="translate(1776.322266 0)"/>
      <use xlink:href="#DejaVuSans-72" transform="translate(1837.845703 0)"/>
     </g>
    </g>
   </g>
   <g id="matplotlib.axis_2">
    <g id="ytick_1">
     <g id="line2d_13">
      <path d="M 73.728 290.304 
L 414.72 290.304 
" clip-path="url(#pea169cccdf)" style="fill: none; stroke: #b0b0b0; stroke-width: 0.8; stroke-linecap: square"/>
     </g>
     <g id="line2d_14">
      <defs>
       <path id="m925bf626e3" d="M 0 0 
L -3.5 0 
" style="stroke: #000000; stroke-width: 0.8"/>
      </defs>
      <g>
       <use xlink:href="#m925bf626e3" x="73.728" y="290.304" style="stroke: #000000; stroke-width: 0.8"/>
      </g>
     </g>
     <g id="text_8">
      <!-- 0 -->
      <g transform="translate(56.548 296.38275) scale(0.16 -0.16)">
       <use xlink:href="#DejaVuSans-30"/>
      </g>
     </g>
    </g>
    <g id="ytick_2">
     <g id="line2d_15">
      <path d="M 73.728 256.176 
L 414.72 256.176 
" clip-path="url(#pea169cccdf)" style="fill: none; stroke: #b0b0b0; stroke-width: 0.8; stroke-linecap: square"/>
     </g>
     <g id="line2d_16">
      <g>
       <use xlink:href="#m925bf626e3" x="73.728" y="256.176" style="stroke: #000000; stroke-width: 0.8"/>
      </g>
     </g>
     <g id="text_9">
      <!-- 2 -->
      <g transform="translate(56.548 262.25475) scale(0.16 -0.16)">
       <use xlink:href="#DejaVuSans-32"/>
      </g>
     </g>
    </g>
    <g id="ytick_3">
     <g id="line2d_17">
      <path d="M 73.728 222.048 
L 414.72 222.048 
" clip-path="url(#pea169cccdf)" style="fill: none; stroke: #b0b0b0; stroke-width: 0.8; stroke-linecap: square"/>
     </g>
     <g id="line2d_18">
      <g>
       <use xlink:href="#m925bf626e3" x="73.728" y="222.048" style="stroke: #000000; stroke-width: 0.8"/>
      </g>
     </g>
     <g id="text_10">
      <!-- 4 -->
      <g transform="translate(56.548 228.12675) scale(0.16 -0.16)">
       <use xlink:href="#DejaVuSans-34"/>
      </g>
     </g>
    </g>
    <g id="ytick_4">
     <g id="line2d_19">
      <path d="M 73.728 187.92 
L 414.72 187.92 
" clip-path="url(#pea169cccdf)" style="fill: none; stroke: #b0b0b0; stroke-width: 0.8; stroke-linecap: square"/>
     </g>
     <g id="line2d_20">
      <g>
       <use xlink:href="#m925bf626e3" x="73.728" y="187.92" style="stroke: #000000; stroke-width: 0.8"/>
      </g>
     </g>
     <g id="text_11">
      <!-- 6 -->
      <g transform="translate(56.548 193.99875) scale(0.16 -0.16)">
       <defs>
        <path id="DejaVuSans-36" d="M 2113 2584 
Q 1688 2584 1439 2293 
Q 1191 2003 1191 1497 
Q 1191 994 1439 701 
Q 1688 409 2113 409 
Q 2538 409 2786 701 
Q 3034 994 3034 1497 
Q 3034 2003 2786 2293 
Q 2538 2584 2113 2584 
z
M 3366 4563 
L 3366 3988 
Q 3128 4100 2886 4159 
Q 2644 4219 2406 4219 
Q 1781 4219 1451 3797 
Q 1122 3375 1075 2522 
Q 1259 2794 1537 2939 
Q 1816 3084 2150 3084 
Q 2853 3084 3261 2657 
Q 3669 2231 3669 1497 
Q 3669 778 3244 343 
Q 2819 -91 2113 -91 
Q 1303 -91 875 529 
Q 447 1150 447 2328 
Q 447 3434 972 4092 
Q 1497 4750 2381 4750 
Q 2619 4750 2861 4703 
Q 3103 4656 3366 4563 
z
" transform="scale(0.015625)"/>
       </defs>
       <use xlink:href="#DejaVuSans-36"/>
      </g>
     </g>
    </g>
    <g id="ytick_5">
     <g id="line2d_21">
      <path d="M 73.728 153.792 
L 414.72 153.792 
" clip-path="url(#pea169cccdf)" style="fill: none; stroke: #b0b0b0; stroke-width: 0.8; stroke-linecap: square"/>
     </g>
     <g id="line2d_22">
      <g>
       <use xlink:href="#m925bf626e3" x="73.728" y="153.792" style="stroke: #000000; stroke-width: 0.8"/>
      </g>
     </g>
     <g id="text_12">
      <!-- 8 -->
      <g transform="translate(56.548 159.87075) scale(0.16 -0.16)">
       <defs>
        <path id="DejaVuSans-38" d="M 2034 2216 
Q 1584 2216 1326 1975 
Q 1069 1734 1069 1313 
Q 1069 891 1326 650 
Q 1584 409 2034 409 
Q 2484 409 2743 651 
Q 3003 894 3003 1313 
Q 3003 1734 2745 1975 
Q 2488 2216 2034 2216 
z
M 1403 2484 
Q 997 2584 770 2862 
Q 544 3141 544 3541 
Q 544 4100 942 4425 
Q 1341 4750 2034 4750 
Q 2731 4750 3128 4425 
Q 3525 4100 3525 3541 
Q 3525 3141 3298 2862 
Q 3072 2584 2669 2484 
Q 3125 2378 3379 2068 
Q 3634 1759 3634 1313 
Q 3634 634 3220 271 
Q 2806 -91 2034 -91 
Q 1263 -91 848 271 
Q 434 634 434 1313 
Q 434 1759 690 2068 
Q 947 2378 1403 2484 
z
M 1172 3481 
Q 1172 3119 1398 2916 
Q 1625 2713 2034 2713 
Q 2441 2713 2670 2916 
Q 2900 3119 2900 3481 
Q 2900 3844 2670 4047 
Q 2441 4250 2034 4250 
Q 1625 4250 1398 4047 
Q 1172 3844 1172 3481 
z
" transform="scale(0.015625)"/>
       </defs>
       <use xlink:href="#DejaVuSans-38"/>
      </g>
     </g>
    </g>
    <g id="ytick_6">
     <g id="line2d_23">
      <path d="M 73.728 119.664 
L 414.72 119.664 
" clip-path="url(#pea169cccdf)" style="fill: none; stroke: #b0b0b0; stroke-width: 0.8; stroke-linecap: square"/>
     </g>
     <g id="line2d_24">
      <g>
       <use xlink:href="#m925bf626e3" x="73.728" y="119.664" style="stroke: #000000; stroke-width: 0.8"/>
      </g>
     </g>
     <g id="text_13">
      <!-- 10 -->
      <g transform="translate(46.368 125.74275) scale(0.16 -0.16)">
       <use xlink:href="#DejaVuSans-31"/>
       <use xlink:href="#DejaVuSans-30" transform="translate(63.623047 0)"/>
      </g>
     </g>
    </g>
    <g id="ytick_7">
     <g id="line2d_25">
      <path d="M 73.728 85.536 
L 414.72 85.536 
" clip-path="url(#pea169cccdf)" style="fill: none; stroke: #b0b0b0; stroke-width: 0.8; stroke-linecap: square"/>
     </g>
     <g id="line2d_26">
      <g>
       <use xlink:href="#m925bf626e3" x="73.728" y="85.536" style="stroke: #000000; stroke-width: 0.8"/>
      </g>
     </g>
     <g id="text_14">
      <!-- 12 -->
      <g transform="translate(46.368 91.61475) scale(0.16 -0.16)">
       <use xlink:href="#DejaVuSans-31"/>
       <use xlink:href="#DejaVuSans-32" transform="translate(63.623047 0)"/>
      </g>
     </g>
    </g>
    <g id="ytick_8">
     <g id="line2d_27">
      <path d="M 73.728 51.408 
L 414.72 51.408 
" clip-path="url(#pea169cccdf)" style="fill: none; stroke: #b0b0b0; stroke-width: 0.8; stroke-linecap: square"/>
     </g>
     <g id="line2d_28">
      <g>
       <use xlink:href="#m925bf626e3" x="73.728" y="51.408" style="stroke: #000000; stroke-width: 0.8"/>
      </g>
     </g>
     <g id="text_15">
      <!-- 14 -->
      <g transform="translate(46.368 57.48675) scale(0.16 -0.16)">
       <use xlink:href="#DejaVuSans-31"/>
       <use xlink:href="#DejaVuSans-34" transform="translate(63.623047 0)"/>
      </g>
     </g>
    </g>
    <g id="ytick_9">
     <g id="line2d_29">
      <path d="M 73.728 17.28 
L 414.72 17.28 
" clip-path="url(#pea169cccdf)" style="fill: none; stroke: #b0b0b0; stroke-width: 0.8; stroke-linecap: square"/>
     </g>
     <g id="line2d_30">
      <g>
       <use xlink:href="#m925bf626e3" x="73.728" y="17.28" style="stroke: #000000; stroke-width: 0.8"/>
      </g>
     </g>
     <g id="text_16">
      <!-- 16 -->
      <g transform="translate(46.368 23.35875) scale(0.16 -0.16)">
       <use xlink:href="#DejaVuSans-31"/>
       <use xlink:href="#DejaVuSans-36" transform="translate(63.623047 0)"/>
      </g>
     </g>
    </g>
    <g id="text_17">
     <!-- Hamming distance to opt best -->
     <g transform="translate(39.0405 275.182) rotate(-90) scale(0.16 -0.16)">
      <defs>
       <path id="DejaVuSans-48" d="M 628 4666 
L 1259 4666 
L 1259 2753 
L 3553 2753 
L 3553 4666 
L 4184 4666 
L 4184 0 
L 3553 0 
L 3553 2222 
L 1259 2222 
L 1259 0 
L 628 0 
L 628 4666 
z
" transform="scale(0.015625)"/>
       <path id="DejaVuSans-6d" d="M 3328 2828 
Q 3544 3216 3844 3400 
Q 4144 3584 4550 3584 
Q 5097 3584 5394 3201 
Q 5691 2819 5691 2113 
L 5691 0 
L 5113 0 
L 5113 2094 
Q 5113 2597 4934 2840 
Q 4756 3084 4391 3084 
Q 3944 3084 3684 2787 
Q 3425 2491 3425 1978 
L 3425 0 
L 2847 0 
L 2847 2094 
Q 2847 2600 2669 2842 
Q 2491 3084 2119 3084 
Q 1678 3084 1418 2786 
Q 1159 2488 1159 1978 
L 1159 0 
L 581 0 
L 581 3500 
L 1159 3500 
L 1159 2956 
Q 1356 3278 1631 3431 
Q 1906 3584 2284 3584 
Q 2666 3584 2933 3390 
Q 3200 3197 3328 2828 
z
" transform="scale(0.015625)"/>
       <path id="DejaVuSans-67" d="M 2906 1791 
Q 2906 2416 2648 2759 
Q 2391 3103 1925 3103 
Q 1463 3103 1205 2759 
Q 947 2416 947 1791 
Q 947 1169 1205 825 
Q 1463 481 1925 481 
Q 2391 481 2648 825 
Q 2906 1169 2906 1791 
z
M 3481 434 
Q 3481 -459 3084 -895 
Q 2688 -1331 1869 -1331 
Q 1566 -1331 1297 -1286 
Q 1028 -1241 775 -1147 
L 775 -588 
Q 1028 -725 1275 -790 
Q 1522 -856 1778 -856 
Q 2344 -856 2625 -561 
Q 2906 -266 2906 331 
L 2906 616 
Q 2728 306 2450 153 
Q 2172 0 1784 0 
Q 1141 0 747 490 
Q 353 981 353 1791 
Q 353 2603 747 3093 
Q 1141 3584 1784 3584 
Q 2172 3584 2450 3431 
Q 2728 3278 2906 2969 
L 2906 3500 
L 3481 3500 
L 3481 434 
z
" transform="scale(0.015625)"/>
       <path id="DejaVuSans-62" d="M 3116 1747 
Q 3116 2381 2855 2742 
Q 2594 3103 2138 3103 
Q 1681 3103 1420 2742 
Q 1159 2381 1159 1747 
Q 1159 1113 1420 752 
Q 1681 391 2138 391 
Q 2594 391 2855 752 
Q 3116 1113 3116 1747 
z
M 1159 2969 
Q 1341 3281 1617 3432 
Q 1894 3584 2278 3584 
Q 2916 3584 3314 3078 
Q 3713 2572 3713 1747 
Q 3713 922 3314 415 
Q 2916 -91 2278 -91 
Q 1894 -91 1617 61 
Q 1341 213 1159 525 
L 1159 0 
L 581 0 
L 581 4863 
L 1159 4863 
L 1159 2969 
z
" transform="scale(0.015625)"/>
      </defs>
      <use xlink:href="#DejaVuSans-48"/>
      <use xlink:href="#DejaVuSans-61" transform="translate(75.195312 0)"/>
      <use xlink:href="#DejaVuSans-6d" transform="translate(136.474609 0)"/>
      <use xlink:href="#DejaVuSans-6d" transform="translate(233.886719 0)"/>
      <use xlink:href="#DejaVuSans-69" transform="translate(331.298828 0)"/>
      <use xlink:href="#DejaVuSans-6e" transform="translate(359.082031 0)"/>
      <use xlink:href="#DejaVuSans-67" transform="translate(422.460938 0)"/>
      <use xlink:href="#DejaVuSans-20" transform="translate(485.9375 0)"/>
      <use xlink:href="#DejaVuSans-64" transform="translate(517.724609 0)"/>
      <use xlink:href="#DejaVuSans-69" transform="translate(581.201172 0)"/>
      <use xlink:href="#DejaVuSans-73" transform="translate(608.984375 0)"/>
      <use xlink:href="#DejaVuSans-74" transform="translate(661.083984 0)"/>
      <use xlink:href="#DejaVuSans-61" transform="translate(700.292969 0)"/>
      <use xlink:href="#DejaVuSans-6e" transform="translate(761.572266 0)"/>
      <use xlink:href="#DejaVuSans-63" transform="translate(824.951172 0)"/>
      <use xlink:href="#DejaVuSans-65" transform="translate(879.931641 0)"/>
      <use xlink:href="#DejaVuSans-20" transform="translate(941.455078 0)"/>
      <use xlink:href="#DejaVuSans-74" transform="translate(973.242188 0)"/>
      <use xlink:href="#DejaVuSans-6f" transform="translate(1012.451172 0)"/>
      <use xlink:href="#DejaVuSans-20" transform="translate(1073.632812 0)"/>
      <use xlink:href="#DejaVuSans-6f" transform="translate(1105.419922 0)"/>
      <use xlink:href="#DejaVuSans-70" transform="translate(1166.601562 0)"/>
      <use xlink:href="#DejaVuSans-74" transform="translate(1230.078125 0)"/>
      <use xlink:href="#DejaVuSans-20" transform="translate(1269.287109 0)"/>
      <use xlink:href="#DejaVuSans-62" transform="translate(1301.074219 0)"/>
      <use xlink:href="#DejaVuSans-65" transform="translate(1364.550781 0)"/>
      <use xlink:href="#DejaVuSans-73" transform="translate(1426.074219 0)"/>
      <use xlink:href="#DejaVuSans-74" transform="translate(1478.173828 0)"/>
     </g>
    </g>
   </g>
   <g id="line2d_31">
    <path d="M 89.227636 187.92 
L 89.846384 102.6 
L 90.465132 170.856 
L 91.08388 136.728 
L 91.702628 85.536 
L 92.321376 170.856 
L 92.940124 204.984 
L 93.558872 187.92 
L 94.17762 119.664 
L 94.796368 170.856 
L 95.415116 170.856 
L 96.033864 153.792 
L 96.652612 85.536 
L 97.27136 136.728 
L 97.890108 119.664 
L 98.508856 68.472 
L 99.127604 170.856 
L 99.746352 170.856 
L 100.983848 204.984 
L 101.602596 153.792 
L 102.221343 187.92 
L 102.840091 85.536 
L 103.458839 153.792 
L 104.077587 204.984 
L 104.696335 170.856 
L 105.315083 119.664 
L 105.933831 256.176 
L 106.552579 102.6 
L 107.171327 187.92 
L 107.790075 170.856 
L 108.408823 222.048 
L 109.027571 119.664 
L 109.646319 153.792 
L 110.265067 102.6 
L 110.883815 204.984 
L 111.502563 187.92 
L 112.121311 119.664 
L 112.740059 102.6 
L 113.358807 187.92 
L 113.977555 187.92 
L 114.596303 102.6 
L 115.215051 153.792 
L 115.833799 136.728 
L 116.452547 204.984 
L 117.071295 102.6 
L 117.690042 136.728 
L 118.30879 153.792 
L 118.927538 102.6 
L 120.165034 170.856 
L 120.783782 153.792 
L 121.40253 204.984 
L 122.021278 85.536 
L 122.640026 153.792 
L 123.258774 153.792 
L 124.49627 187.92 
L 125.115018 102.6 
L 125.733766 119.664 
L 126.352514 187.92 
L 126.971262 119.664 
L 127.59001 239.112 
L 128.208758 136.728 
L 128.827506 85.536 
L 129.446254 153.792 
L 130.065002 102.6 
L 130.68375 170.856 
L 131.921246 204.984 
L 132.539993 204.984 
L 133.158741 85.536 
L 133.777489 170.856 
L 134.396237 170.856 
L 135.014985 187.92 
L 135.633733 136.728 
L 136.252481 102.6 
L 136.871229 136.728 
L 137.489977 136.728 
L 138.108725 170.856 
L 138.727473 136.728 
L 139.346221 85.536 
L 139.964969 204.984 
L 140.583717 170.856 
L 141.202465 119.664 
L 141.821213 170.856 
L 142.439961 68.472 
L 143.058709 170.856 
L 143.677457 239.112 
L 144.296205 85.536 
L 144.914953 204.984 
L 145.533701 204.984 
L 146.152449 153.792 
L 146.771197 239.112 
L 147.389944 153.792 
L 148.008692 102.6 
L 148.62744 119.664 
L 149.246188 204.984 
L 149.864936 204.984 
L 150.483684 153.792 
L 151.102432 85.536 
L 151.72118 102.6 
L 152.339928 85.536 
L 152.958676 119.664 
L 153.577424 170.856 
L 154.196172 85.536 
L 154.81492 204.984 
L 155.433668 136.728 
L 156.052416 170.856 
L 156.671164 170.856 
L 157.289912 136.728 
L 157.90866 273.24 
L 158.527408 170.856 
L 159.146156 204.984 
L 159.764904 119.664 
L 160.383652 119.664 
L 161.0024 136.728 
L 161.621148 204.984 
L 162.239895 204.984 
L 162.858643 239.112 
L 163.477391 119.664 
L 164.096139 222.048 
L 164.714887 153.792 
L 165.333635 68.472 
L 165.952383 119.664 
L 166.571131 222.048 
L 167.808627 85.536 
L 168.427375 187.92 
L 169.046123 239.112 
L 169.664871 85.536 
L 170.283619 119.664 
L 170.902367 119.664 
L 171.521115 170.856 
L 172.139863 102.6 
L 172.758611 153.792 
L 173.377359 170.856 
L 173.996107 136.728 
L 174.614855 170.856 
L 175.852351 102.6 
L 176.471099 170.856 
L 177.089846 153.792 
L 177.708594 153.792 
L 178.94609 187.92 
L 179.564838 85.536 
L 180.183586 119.664 
L 181.421082 222.048 
L 182.03983 119.664 
L 182.658578 170.856 
L 183.277326 102.6 
L 183.896074 136.728 
L 184.514822 187.92 
L 185.13357 102.6 
L 185.752318 222.048 
L 186.371066 136.728 
L 186.989814 222.048 
L 187.608562 153.792 
L 188.22731 153.792 
L 188.846058 119.664 
L 189.464806 204.984 
L 190.083554 119.664 
L 190.702302 204.984 
L 191.939797 136.728 
L 192.558545 204.984 
L 193.177293 170.856 
L 193.796041 222.048 
L 194.414789 170.856 
L 195.033537 170.856 
L 195.652285 187.92 
L 196.271033 153.792 
L 196.889781 153.792 
L 197.508529 136.728 
L 198.127277 136.728 
L 198.746025 68.472 
L 199.364773 153.792 
L 199.983521 204.984 
L 200.602269 136.728 
L 201.221017 119.664 
L 201.839765 239.112 
L 202.458513 187.92 
L 203.077261 204.984 
L 203.696009 187.92 
L 204.314757 204.984 
L 204.933505 170.856 
L 206.171001 136.728 
L 206.789749 102.6 
L 207.408496 136.728 
L 208.027244 204.984 
L 208.645992 222.048 
L 209.26474 187.92 
L 209.883488 136.728 
L 210.502236 170.856 
L 211.120984 222.048 
L 211.739732 119.664 
L 212.35848 102.6 
L 212.977228 153.792 
L 213.595976 187.92 
L 214.214724 136.728 
L 214.833472 102.6 
L 215.45222 153.792 
L 216.070968 187.92 
L 217.308464 187.92 
L 217.927212 153.792 
L 218.54596 153.792 
L 219.164708 204.984 
L 219.783456 153.792 
L 220.402204 153.792 
L 221.020952 136.728 
L 221.6397 153.792 
L 222.258447 187.92 
L 222.877195 204.984 
L 223.495943 239.112 
L 224.114691 187.92 
L 224.733439 102.6 
L 225.352187 136.728 
L 225.970935 153.792 
L 226.589683 187.92 
L 227.208431 136.728 
L 227.827179 102.6 
L 228.445927 153.792 
L 229.064675 136.728 
L 229.683423 136.728 
L 230.920919 102.6 
L 231.539667 153.792 
L 232.158415 187.92 
L 232.777163 170.856 
L 233.395911 102.6 
L 234.014659 187.92 
L 234.633407 119.664 
L 235.870903 153.792 
L 236.489651 187.92 
L 237.108398 85.536 
L 237.727146 187.92 
L 238.345894 136.728 
L 238.964642 119.664 
L 239.58339 170.856 
L 240.202138 119.664 
L 240.820886 136.728 
L 241.439634 187.92 
L 242.058382 51.408 
L 242.67713 85.536 
L 243.295878 170.856 
L 243.914626 102.6 
L 244.533374 204.984 
L 245.152122 136.728 
L 245.77087 119.664 
L 246.389618 239.112 
L 247.008366 85.536 
L 248.245862 119.664 
L 248.86461 187.92 
L 249.483358 119.664 
L 250.102106 136.728 
L 250.720854 170.856 
L 251.339602 256.176 
L 251.958349 119.664 
L 252.577097 153.792 
L 253.195845 222.048 
L 253.814593 153.792 
L 254.433341 153.792 
L 255.670837 222.048 
L 256.289585 222.048 
L 256.908333 136.728 
L 257.527081 119.664 
L 258.145829 187.92 
L 258.764577 119.664 
L 259.383325 187.92 
L 260.002073 187.92 
L 260.620821 153.792 
L 261.239569 153.792 
L 261.858317 204.984 
L 262.477065 187.92 
L 263.095813 187.92 
L 263.714561 136.728 
L 264.333309 204.984 
L 264.952057 102.6 
L 265.570805 222.048 
L 266.189553 222.048 
L 266.8083 170.856 
L 267.427048 204.984 
L 268.045796 136.728 
L 268.664544 222.048 
L 269.283292 153.792 
L 269.90204 119.664 
L 270.520788 136.728 
L 271.139536 102.6 
L 271.758284 222.048 
L 272.377032 153.792 
L 272.99578 119.664 
L 273.614528 187.92 
L 274.233276 119.664 
L 274.852024 119.664 
L 275.470772 136.728 
L 276.08952 204.984 
L 276.708268 136.728 
L 277.327016 153.792 
L 277.945764 187.92 
L 278.564512 119.664 
L 279.18326 102.6 
L 279.802008 136.728 
L 280.420756 187.92 
L 281.039504 153.792 
L 281.658251 102.6 
L 282.276999 187.92 
L 282.895747 153.792 
L 283.514495 136.728 
L 284.133243 187.92 
L 284.751991 222.048 
L 285.370739 85.536 
L 285.989487 204.984 
L 286.608235 153.792 
L 287.226983 136.728 
L 287.845731 222.048 
L 288.464479 222.048 
L 289.083227 136.728 
L 289.701975 170.856 
L 290.320723 170.856 
L 290.939471 187.92 
L 291.558219 170.856 
L 292.176967 204.984 
L 292.795715 119.664 
L 293.414463 153.792 
L 294.033211 136.728 
L 294.651959 102.6 
L 295.270707 153.792 
L 295.889455 170.856 
L 296.508203 153.792 
L 297.12695 170.856 
L 297.745698 102.6 
L 298.364446 187.92 
L 298.983194 239.112 
L 299.601942 187.92 
L 300.22069 153.792 
L 300.839438 187.92 
L 301.458186 136.728 
L 302.076934 170.856 
L 302.695682 187.92 
L 303.31443 239.112 
L 303.933178 153.792 
L 304.551926 85.536 
L 305.170674 187.92 
L 305.789422 119.664 
L 306.40817 170.856 
L 307.026918 256.176 
L 307.645666 102.6 
L 308.264414 119.664 
L 308.883162 187.92 
L 309.50191 119.664 
L 310.120658 222.048 
L 310.739406 222.048 
L 311.358154 153.792 
L 311.976901 153.792 
L 312.595649 136.728 
L 313.214397 136.728 
L 313.833145 85.536 
L 314.451893 119.664 
L 315.070641 136.728 
L 315.689389 187.92 
L 316.308137 153.792 
L 316.926885 222.048 
L 317.545633 187.92 
L 318.783129 153.792 
L 319.401877 170.856 
L 320.020625 153.792 
L 320.639373 102.6 
L 321.258121 170.856 
L 321.876869 136.728 
L 322.495617 119.664 
L 323.114365 204.984 
L 323.733113 136.728 
L 324.351861 170.856 
L 324.970609 136.728 
L 325.589357 170.856 
L 326.208105 119.664 
L 326.826852 119.664 
L 327.4456 256.176 
L 328.064348 204.984 
L 328.683096 222.048 
L 329.301844 136.728 
L 329.920592 187.92 
L 330.53934 136.728 
L 331.776836 204.984 
L 332.395584 170.856 
L 333.014332 170.856 
L 333.63308 187.92 
L 334.251828 239.112 
L 334.870576 204.984 
L 335.489324 136.728 
L 336.108072 119.664 
L 336.72682 204.984 
L 337.345568 136.728 
L 337.964316 153.792 
L 338.583064 136.728 
L 339.201812 170.856 
L 339.82056 170.856 
L 340.439308 204.984 
L 341.058056 136.728 
L 341.676803 102.6 
L 342.295551 153.792 
L 342.914299 85.536 
L 343.533047 102.6 
L 344.151795 204.984 
L 344.770543 187.92 
L 345.389291 136.728 
L 346.008039 187.92 
L 346.626787 222.048 
L 347.245535 119.664 
L 347.864283 153.792 
L 348.483031 204.984 
L 349.101779 153.792 
L 349.720527 136.728 
L 350.339275 102.6 
L 350.958023 153.792 
L 351.576771 102.6 
L 352.195519 153.792 
L 352.814267 222.048 
L 353.433015 119.664 
L 354.051763 153.792 
L 354.670511 136.728 
L 355.289259 102.6 
L 355.908007 187.92 
L 356.526754 187.92 
L 357.145502 102.6 
L 357.76425 136.728 
L 358.382998 204.984 
L 359.001746 119.664 
L 359.620494 136.728 
L 360.239242 136.728 
L 360.85799 119.664 
L 361.476738 170.856 
L 362.095486 136.728 
L 362.714234 187.92 
L 363.332982 136.728 
L 363.95173 68.472 
L 364.570478 119.664 
L 365.807974 119.664 
L 366.426722 85.536 
L 367.04547 204.984 
L 367.664218 170.856 
L 368.282966 222.048 
L 368.901714 204.984 
L 369.520462 153.792 
L 370.13921 170.856 
L 370.757958 136.728 
L 371.376705 153.792 
L 371.995453 136.728 
L 373.232949 239.112 
L 373.851697 170.856 
L 374.470445 136.728 
L 375.707941 204.984 
L 376.326689 204.984 
L 376.945437 136.728 
L 378.182933 204.984 
L 378.801681 119.664 
L 379.420429 239.112 
L 380.039177 119.664 
L 380.657925 170.856 
L 381.276673 204.984 
L 381.895421 170.856 
L 382.514169 170.856 
L 383.132917 187.92 
L 383.751665 136.728 
L 384.370413 239.112 
L 384.989161 170.856 
L 385.607909 153.792 
L 386.226657 170.856 
L 386.845404 153.792 
L 387.464152 187.92 
L 388.0829 153.792 
L 388.701648 187.92 
L 389.320396 204.984 
L 389.939144 153.792 
L 390.557892 136.728 
L 391.17664 153.792 
L 391.795388 222.048 
L 392.414136 187.92 
L 393.032884 187.92 
L 393.651632 119.664 
L 394.27038 136.728 
L 394.889128 170.856 
L 395.507876 153.792 
L 396.126624 170.856 
L 396.745372 170.856 
L 397.36412 187.92 
L 397.982868 170.856 
L 398.601616 170.856 
L 399.220364 153.792 
L 399.220364 153.792 
" clip-path="url(#pea169cccdf)" style="fill: none; stroke: #1f77b4; stroke-width: 1.5; stroke-linecap: square"/>
   </g>
   <g id="patch_3">
    <path d="M 73.728 290.304 
L 73.728 17.28 
" style="fill: none; stroke: #000000; stroke-width: 0.8; stroke-linejoin: miter; stroke-linecap: square"/>
   </g>
   <g id="patch_4">
    <path d="M 414.72 290.304 
L 414.72 17.28 
" style="fill: none; stroke: #000000; stroke-width: 0.8; stroke-linejoin: miter; stroke-linecap: square"/>
   </g>
   <g id="patch_5">
    <path d="M 73.728 290.304 
L 414.72 290.304 
" style="fill: none; stroke: #000000; stroke-width: 0.8; stroke-linejoin: miter; stroke-linecap: square"/>
   </g>
   <g id="patch_6">
    <path d="M 73.728 17.28 
L 414.72 17.28 
" style="fill: none; stroke: #000000; stroke-width: 0.8; stroke-linejoin: miter; stroke-linecap: square"/>
   </g>
  </g>
 </g>
 <defs>
  <clipPath id="pea169cccdf">
   <rect x="73.728" y="17.28" width="340.992" height="273.024"/>
  </clipPath>
 </defs>
</svg>
