<svg width="1280" height="720" xmlns="http://www.w3.org/2000/svg" xmlns:xlink="http://www.w3.org/1999/xlink" overflow="hidden"><defs><clipPath id="clip0"><rect x="0" y="0" width="1280" height="720"/></clipPath><linearGradient x1="1169.5" y1="37.8334" x2="1169.5" y2="700.167" gradientUnits="userSpaceOnUse" spreadMethod="reflect" id="stroke1"><stop offset="0" stop-color="#F6F8FC"/><stop offset="0.74" stop-color="#ABC0E4"/><stop offset="0.83" stop-color="#ABC0E4"/><stop offset="1" stop-color="#C7D5ED"/></linearGradient><linearGradient x1="711.5" y1="167.833" x2="711.5" y2="579.167" gradientUnits="userSpaceOnUse" spreadMethod="reflect" id="stroke2"><stop offset="0" stop-color="#F6F8FC"/><stop offset="0.74" stop-color="#ABC0E4"/><stop offset="0.83" stop-color="#ABC0E4"/><stop offset="1" stop-color="#C7D5ED"/></linearGradient></defs><g clip-path="url(#clip0)"><rect x="0" y="0" width="1280" height="720" fill="#FFFFFF"/><rect x="167.5" y="578.5" width="130" height="40" stroke="#2F528F" stroke-width="1.33333" stroke-miterlimit="8" fill="#FFFFFF"/><rect x="297.5" y="32.5001" width="966" height="674" stroke="#2F528F" stroke-width="1.33333" stroke-miterlimit="8" fill="none"/><rect x="0.500053" y="618.5" width="297" height="88" stroke="#2F528F" stroke-width="1.33333" stroke-miterlimit="8" fill="none"/><path d="M167.5 618.5 302.56 618.5" stroke="#FFFFFF" stroke-width="1.33333" stroke-miterlimit="8" fill="none" fill-rule="evenodd"/><rect x="297.5" y="32.5001" width="126" height="607" stroke="#2F528F" stroke-width="1.33333" stroke-miterlimit="8" fill="#0070C0"/><path d="M297.813 707.388 276.5 650.5" stroke="#2F528F" stroke-width="1.33333" stroke-miterlimit="8" fill="none" fill-rule="evenodd"/><path d="M276.824 651.109C275.395 648.701 278.792 646.252 284.412 645.639 290.032 645.026 295.746 646.482 297.176 648.891 297.391 649.253 297.5 649.626 297.5 650" stroke="#2F528F" stroke-miterlimit="8" fill="none" fill-rule="evenodd"/><text font-family="Calibri,Calibri_MSFontService,sans-serif" font-weight="400" font-size="24" transform="translate(247.007 647)">Tx<tspan font-size="24" x="204.26" y="58">RIS</tspan></text><rect x="1084.5" y="38.5001" width="170" height="661" stroke="url(#stroke1)" stroke-width="1.33333" stroke-miterlimit="8" fill="#4472C4" fill-opacity="0.219608"/><rect x="434.5" y="168.5" width="554" height="410" stroke="url(#stroke2)" stroke-width="1.33333" stroke-miterlimit="8" fill="#843C0C" fill-opacity="0.219608"/><path d="M988.5 168.5C995.404 168.5 1001 169.433 1001 170.583L1001 371.417C1001 372.567 1006.6 373.5 1013.5 373.5 1006.6 373.5 1001 374.433 1001 375.583L1001 576.417C1001 577.567 995.404 578.5 988.5 578.5" stroke="#4472C4" stroke-width="0.666667" stroke-miterlimit="8" fill="none" fill-rule="evenodd"/><path d="M434.5 168.5C434.5 161.32 435.47 155.5 436.667 155.5L709.333 155.5C710.53 155.5 711.5 149.68 711.5 142.5 711.5 149.68 712.47 155.5 713.667 155.5L986.333 155.5C987.53 155.5 988.5 161.32 988.5 168.5" stroke="#4472C4" stroke-width="0.666667" stroke-miterlimit="8" fill="none" fill-rule="evenodd"/><text font-family="Calibri,Calibri_MSFontService,sans-serif" font-weight="400" font-size="24" transform="translate(695.378 130)">Rx<tspan font-size="16" x="23.3334" y="5">x</tspan><tspan font-size="24" x="327.566" y="251">Rx</tspan><tspan font-size="16" x="350.899" y="256">y</tspan><tspan font-size="24" x="-506.282" y="575">A1</tspan><tspan font-size="24" x="-242.091" y="-70">A3</tspan><tspan font-size="24" x="400.242" y="575">A2</tspan></text><text font-family="Calibri,Calibri_MSFontService,sans-serif" font-weight="400" font-size="24" transform="matrix(6.12323e-17 1 -1 6.12323e-17 1161.79 165)">Zastawiona <tspan font-size="24" x="115" y="7.04172e-15">–</tspan><tspan font-size="24" x="133" y="8.1439e-15">Nieużywana przestrzeń</tspan></text><text font-family="Calibri,Calibri_MSFontService,sans-serif" font-weight="400" font-size="24" transform="translate(597.826 367)">Przestrzeń pozycji Rx</text></g></svg>