<svg width="1280" height="720" xmlns="http://www.w3.org/2000/svg" xmlns:xlink="http://www.w3.org/1999/xlink" overflow="hidden"><defs><clipPath id="clip0"><rect x="0" y="0" width="1280" height="720"/></clipPath><radialGradient cx="209550" cy="204788" r="293000" fx="209550" fy="204788" gradientUnits="userSpaceOnUse" spreadMethod="pad" id="fill1" gradientTransform="matrix(0.000104987 0 0 0.000104987 674.5 137.5)"><stop offset="0" stop-color="#B196D2"/><stop offset="0.5" stop-color="#CFC0E2"/><stop offset="1" stop-color="#E7E1F0"/></radialGradient><radialGradient cx="204788" cy="209550" r="293000" fx="204788" fy="209550" gradientUnits="userSpaceOnUse" spreadMethod="pad" id="fill2" gradientTransform="matrix(0.000104987 0 0 0.000104987 750.5 338.5)"><stop offset="0" stop-color="#98A4CC"/><stop offset="0.5" stop-color="#C1C8DE"/><stop offset="1" stop-color="#E1E4EE"/></radialGradient><radialGradient cx="204788" cy="209550" r="293000" fx="204788" fy="209550" gradientUnits="userSpaceOnUse" spreadMethod="pad" id="fill3" gradientTransform="matrix(0.000104987 0 0 0.000104987 566.5 338.5)"><stop offset="0" stop-color="#95ABEA"/><stop offset="0.5" stop-color="#BFCBF0"/><stop offset="1" stop-color="#E0E5F7"/></radialGradient><radialGradient cx="204788" cy="209550" r="293000" fx="204788" fy="209550" gradientUnits="userSpaceOnUse" spreadMethod="pad" id="fill4" gradientTransform="matrix(0.000104987 0 0 0.000104987 382.5 338.5)"><stop offset="0" stop-color="#95ABEA"/><stop offset="0.5" stop-color="#BFCBF0"/><stop offset="1" stop-color="#E0E5F7"/></radialGradient><radialGradient cx="204787" cy="204787" r="289613" fx="204788" fy="204788" gradientUnits="userSpaceOnUse" spreadMethod="pad" id="fill5" gradientTransform="matrix(0.000104987 0 0 0.000104987 437.5 137.5)"><stop offset="0" stop-color="#95ABEA"/><stop offset="0.5" stop-color="#BFCBF0"/><stop offset="1" stop-color="#E0E5F7"/></radialGradient><radialGradient cx="204787" cy="204787" r="289613" fx="204788" fy="204788" gradientUnits="userSpaceOnUse" spreadMethod="pad" id="fill6" gradientTransform="matrix(0.000104987 0 0 0.000104987 566.5 137.5)"><stop offset="0" stop-color="#95ABEA"/><stop offset="0.5" stop-color="#BFCBF0"/><stop offset="1" stop-color="#E0E5F7"/></radialGradient></defs><g clip-path="url(#clip0)"><rect x="0" y="0" width="1280" height="720" fill="#FFFFFF"/><path d="M674.5 159C674.5 147.126 684.35 137.5 696.5 137.5 708.65 137.5 718.5 147.126 718.5 159 718.5 170.874 708.65 180.5 696.5 180.5 684.35 180.5 674.5 170.874 674.5 159Z" stroke="#7030A0" stroke-width="1.33333" stroke-miterlimit="8" fill="url(#fill1)" fill-rule="evenodd"/><path d="M750.5 360.5C750.5 348.35 760.126 338.5 772 338.5 783.874 338.5 793.5 348.35 793.5 360.5 793.5 372.65 783.874 382.5 772 382.5 760.126 382.5 750.5 372.65 750.5 360.5Z" stroke="#2F528F" stroke-width="1.33333" stroke-miterlimit="8" fill="url(#fill2)" fill-rule="evenodd"/><path d="M566.5 360.5C566.5 348.35 576.126 338.5 588 338.5 599.874 338.5 609.5 348.35 609.5 360.5 609.5 372.65 599.874 382.5 588 382.5 576.126 382.5 566.5 372.65 566.5 360.5Z" stroke="#2F528F" stroke-width="1.33333" stroke-miterlimit="8" fill="url(#fill3)" fill-rule="evenodd"/><path d="M382.5 360.5C382.5 348.35 392.126 338.5 404 338.5 415.874 338.5 425.5 348.35 425.5 360.5 425.5 372.65 415.874 382.5 404 382.5 392.126 382.5 382.5 372.65 382.5 360.5Z" stroke="#2F528F" stroke-width="1.33333" stroke-miterlimit="8" fill="url(#fill4)" fill-rule="evenodd"/><path d="M437.5 159C437.5 147.126 447.126 137.5 459 137.5 470.874 137.5 480.5 147.126 480.5 159 480.5 170.874 470.874 180.5 459 180.5 447.126 180.5 437.5 170.874 437.5 159Z" stroke="#2F528F" stroke-width="1.33333" stroke-miterlimit="8" fill="url(#fill5)" fill-rule="evenodd"/><path d="M566.5 159C566.5 147.126 576.126 137.5 588 137.5 599.874 137.5 609.5 147.126 609.5 159 609.5 170.874 599.874 180.5 588 180.5 576.126 180.5 566.5 170.874 566.5 159Z" stroke="#2F528F" stroke-width="1.33333" stroke-miterlimit="8" fill="url(#fill6)" fill-rule="evenodd"/><path d="M711.5 174.5 771.721 338.916" stroke="#4472C4" stroke-width="1.33333" stroke-miterlimit="8" fill="none" fill-rule="evenodd"/><path d="M0 0 78.2605 170.807" stroke="#4472C4" stroke-width="1.33333" stroke-miterlimit="8" fill="none" fill-rule="evenodd" transform="matrix(-1 0 0 1 681.76 174.5)"/><path d="M609.5 158.5 675.162 158.5" stroke="#5B9BD5" stroke-width="1.33333" stroke-miterlimit="8" fill="none" fill-rule="evenodd"/><path d="M609.5 360.5 750.591 360.5" stroke="#70AD47" stroke-width="1.33333" stroke-miterlimit="8" fill="none" fill-rule="evenodd"/><path d="M572.501 345.307 474.5 174.5" stroke="#70AD47" stroke-width="1.33333" stroke-miterlimit="8" fill="none" fill-rule="evenodd"/><path d="M0 0 40.4808 164.416" stroke="#70AD47" stroke-width="1.33333" stroke-miterlimit="8" fill="none" fill-rule="evenodd" transform="matrix(-1 0 0 1 443.981 174.5)"/><path d="M425.5 360.5 566.591 360.5" stroke="#70AD47" stroke-width="1.33333" stroke-miterlimit="8" fill="none" fill-rule="evenodd"/><text font-family="Calibri,Calibri_MSFontService,sans-serif" font-weight="400" font-size="24" transform="translate(574.705 166)">A3<tspan font-size="24" x="109.388" y="0">Rx</tspan><tspan font-size="24" x="183.752" y="201">A2</tspan><tspan font-size="24" x="-2.38831" y="201">RIS</tspan><tspan font-size="24" x="-184.762" y="200">A1</tspan><tspan font-size="24" x="-126.616" y="0">Tx</tspan></text><path d="M563.5 328.389C563.566 316.239 574.14 306.439 587.118 306.5 600.051 306.561 610.5 316.393 610.5 328.5" stroke="#000000" stroke-width="0.666667" stroke-miterlimit="8" fill="none" fill-rule="evenodd"/><path d="M587.5 180.5 587.5 338.526" stroke="#70AD47" stroke-width="1.33333" stroke-miterlimit="8" fill="none" fill-rule="evenodd"/><text font-family="Calibri,Calibri_MSFontService,sans-serif" font-weight="400" font-size="24" transform="translate(567.473 331)">α<tspan font-size="24" x="24.6666" y="0">β</tspan><tspan fill="#70AD47" font-size="24" x="-93.3306" y="47">a</tspan><tspan fill="#70AD47" font-size="24" x="-50.3792" y="-86">b</tspan><tspan fill="#70AD47" font-size="24" x="-161.421" y="-84">d</tspan><tspan fill="#70AD47" font-size="24" x="22.6733" y="-98">f</tspan><tspan fill="#70AD47" font-size="24" x="116.277" y="50">b</tspan><tspan fill="#0070C0" font-size="24" x="180.231" y="-69">g</tspan><tspan fill="#0070C0" font-size="24" x="191.564" y="-69">*</tspan><tspan fill="#0070C0" font-size="24" x="59.5101" y="-74">c</tspan><tspan fill="#0070C0" font-size="24" x="66.9506" y="-156">e</tspan><tspan fill="#0070C0" font-size="24" x="228.377" y="-152">Niebieski </tspan><tspan fill="#0070C0" font-size="24" x="322.71" y="-152">–</tspan><tspan fill="#0070C0" font-size="24" x="340.21" y="-152">Mierzone przez UWB</tspan><tspan fill="#70AD47" font-size="24" x="228.377" y="-123">Zielony </tspan><tspan fill="#70AD47" font-size="24" x="303.764" y="-123">–</tspan><tspan fill="#70AD47" font-size="24" x="321.264" y="-123">Mierzone Ręcznie</tspan><tspan font-size="24" x="228.377" y="-94">* </tspan>-<tspan font-size="24" x="258.71" y="-94">Nie używane bezpośrednio</tspan></text></g></svg>