<?xml version="1.0" encoding="utf-8" standalone="no"?>
<!DOCTYPE svg PUBLIC "-//W3C//DTD SVG 1.1//EN"
  "http://www.w3.org/Graphics/SVG/1.1/DTD/svg11.dtd">
<svg xmlns:xlink="http://www.w3.org/1999/xlink" width="623.725625pt" height="673.94225pt" viewBox="0 0 623.725625 673.94225" xmlns="http://www.w3.org/2000/svg" version="1.1">
 <metadata>
  <rdf:RDF xmlns:dc="http://purl.org/dc/elements/1.1/" xmlns:cc="http://creativecommons.org/ns#" xmlns:rdf="http://www.w3.org/1999/02/22-rdf-syntax-ns#">
   <cc:Work>
    <dc:type rdf:resource="http://purl.org/dc/dcmitype/StillImage"/>
    <dc:date>2025-08-20T21:11:14.707143</dc:date>
    <dc:format>image/svg+xml</dc:format>
    <dc:creator>
     <cc:Agent>
      <dc:title>Matplotlib v3.10.3, https://matplotlib.org/</dc:title>
     </cc:Agent>
    </dc:creator>
   </cc:Work>
  </rdf:RDF>
 </metadata>
 <defs>
  <style type="text/css">*{stroke-linejoin: round; stroke-linecap: butt}</style>
 </defs>
 <g id="figure_1">
  <g id="patch_1">
   <path d="M 0 673.94225 
L 623.725625 673.94225 
L 623.725625 0 
L 0 0 
z
" style="fill: #ffffff"/>
  </g>
  <g id="axes_1">
   <g id="patch_2">
    <path d="M 58.525625 620.901 
L 616.525625 620.901 
L 616.525625 177.381 
L 58.525625 177.381 
z
" style="fill: #ffffff"/>
   </g>
   <g id="FillBetweenPolyCollection_1"/>
   <g id="FillBetweenPolyCollection_2"/>
   <g id="FillBetweenPolyCollection_3">
    <defs>
     <path id="m0c222331fa" d="M 363.91385 -406.792112 
L 363.91385 -406.792112 
L 426.150458 -437.573263 
L 463.548688 -455.071502 
L 489.132203 -462.064219 
L 509.612047 -468.221459 
L 518.062333 -474.231356 
L 527.253259 -475.773171 
L 536.031352 -476.40125 
L 536.031352 -476.40125 
L 536.031352 -476.40125 
L 527.253259 -475.773171 
L 518.062333 -474.231356 
L 509.612047 -468.221459 
L 489.132203 -462.064219 
L 463.548688 -455.071502 
L 426.150458 -437.573263 
L 363.91385 -406.792112 
z
" style="stroke: #ff7f0e; stroke-opacity: 0.2"/>
    </defs>
    <g clip-path="url(#p5555e61825)">
     <use xlink:href="#m0c222331fa" x="0" y="673.94225" style="fill: #ff7f0e; fill-opacity: 0.2; stroke: #ff7f0e; stroke-opacity: 0.2"/>
    </g>
   </g>
   <g id="FillBetweenPolyCollection_4">
    <defs>
     <path id="m7e3adbdf0d" d="M 343.878138 -407.720896 
L 343.878138 -407.720896 
L 380.28422 -429.156036 
L 402.293384 -437.578333 
L 418.337842 -445.633984 
L 436.058439 -449.611548 
L 441.265024 -451.793092 
L 450.851555 -453.27399 
L 455.286454 -454.480267 
L 455.286454 -454.480267 
L 455.286454 -454.480267 
L 450.851555 -453.27399 
L 441.265024 -451.793092 
L 436.058439 -449.611548 
L 418.337842 -445.633984 
L 402.293384 -437.578333 
L 380.28422 -429.156036 
L 343.878138 -407.720896 
z
" style="stroke: #ffbb78; stroke-opacity: 0.2"/>
    </defs>
    <g clip-path="url(#p5555e61825)">
     <use xlink:href="#m7e3adbdf0d" x="0" y="673.94225" style="fill: #ffbb78; fill-opacity: 0.2; stroke: #ffbb78; stroke-opacity: 0.2"/>
    </g>
   </g>
   <g id="FillBetweenPolyCollection_5">
    <defs>
     <path id="mb633318e00" d="M 307.472056 -395.081497 
L 307.472056 -395.081497 
L 343.878138 -408.871171 
L 363.91385 -421.02766 
L 380.28422 -430.112355 
L 398.302129 -435.664876 
L 406.114746 -438.283463 
L 416.690301 -439.178976 
L 426.150458 -439.461013 
L 427.634599 -439.461013 
L 427.634599 -439.461013 
L 427.634599 -439.461013 
L 426.150458 -439.461013 
L 416.690301 -439.178976 
L 406.114746 -438.283463 
L 398.302129 -435.664876 
L 380.28422 -430.112355 
L 363.91385 -421.02766 
L 343.878138 -408.871171 
L 307.472056 -395.081497 
z
" style="stroke: #2ca02c; stroke-opacity: 0.2"/>
    </defs>
    <g clip-path="url(#p5555e61825)">
     <use xlink:href="#mb633318e00" x="0" y="673.94225" style="fill: #2ca02c; fill-opacity: 0.2; stroke: #2ca02c; stroke-opacity: 0.2"/>
    </g>
   </g>
   <g id="FillBetweenPolyCollection_6">
    <defs>
     <path id="m05bdb2e1ff" d="M 245.235448 -358.534527 
L 245.235448 -358.534527 
L 281.64153 -377.797113 
L 307.472056 -391.948058 
L 318.047612 -399.975854 
L 327.507769 -401.824831 
L 331.888562 -401.824831 
L 331.888562 -401.824831 
L 331.888562 -401.824831 
L 327.507769 -401.824831 
L 318.047612 -399.975854 
L 307.472056 -391.948058 
L 281.64153 -377.797113 
L 245.235448 -358.534527 
z
" style="stroke: #98df8a; stroke-opacity: 0.2"/>
    </defs>
    <g clip-path="url(#p5555e61825)">
     <use xlink:href="#m05bdb2e1ff" x="0" y="673.94225" style="fill: #98df8a; fill-opacity: 0.2; stroke: #98df8a; stroke-opacity: 0.2"/>
    </g>
   </g>
   <g id="FillBetweenPolyCollection_7">
    <defs>
     <path id="mde7f9af235" d="M 182.998841 -282.895974 
L 182.998841 -282.895974 
L 219.404922 -318.287535 
L 245.235448 -326.597057 
L 265.271161 -330.079811 
L 281.64153 -331.47568 
L 295.48248 -331.47568 
L 295.48248 -331.47568 
L 295.48248 -331.47568 
L 281.64153 -331.47568 
L 265.271161 -330.079811 
L 245.235448 -326.597057 
L 219.404922 -318.287535 
L 182.998841 -282.895974 
z
" style="stroke: #d62728; stroke-opacity: 0.2"/>
    </defs>
    <g clip-path="url(#p5555e61825)">
     <use xlink:href="#mde7f9af235" x="0" y="673.94225" style="fill: #d62728; fill-opacity: 0.2; stroke: #d62728; stroke-opacity: 0.2"/>
    </g>
   </g>
   <g id="FillBetweenPolyCollection_8">
    <defs>
     <path id="m1074bb4fd6" d="M 120.762233 -205.511966 
L 120.762233 -205.511966 
L 157.168315 -230.562979 
L 182.998841 -246.689326 
L 203.034553 -257.795367 
L 219.404922 -263.591872 
L 233.245872 -267.074627 
L 245.235448 -267.074627 
L 245.235448 -267.074627 
L 245.235448 -267.074627 
L 233.245872 -267.074627 
L 219.404922 -263.591872 
L 203.034553 -257.795367 
L 182.998841 -246.689326 
L 157.168315 -230.562979 
L 120.762233 -205.511966 
z
" style="stroke: #ff9896; stroke-opacity: 0.2"/>
    </defs>
    <g clip-path="url(#p5555e61825)">
     <use xlink:href="#m1074bb4fd6" x="0" y="673.94225" style="fill: #ff9896; fill-opacity: 0.2; stroke: #ff9896; stroke-opacity: 0.2"/>
    </g>
   </g>
   <g id="FillBetweenPolyCollection_9">
    <defs>
     <path id="mf71e460d82" d="M 120.762233 -205.511966 
L 120.762233 -205.511966 
L 157.168315 -246.689326 
L 182.998841 -296.961839 
L 219.404922 -326.597057 
L 233.245872 -326.597057 
L 245.235448 -358.534527 
L 273.828914 -373.186263 
L 281.64153 -377.797113 
L 295.48248 -385.860516 
L 301.677243 -395.080696 
L 307.472056 -395.081497 
L 312.915447 -399.777403 
L 318.047612 -399.975854 
L 322.902224 -401.824831 
L 327.507769 -401.824831 
L 331.888562 -401.824831 
L 336.065522 -414.23326 
L 340.056776 -414.556741 
L 343.878138 -414.994022 
L 363.91385 -423.633353 
L 377.7548 -429.156036 
L 380.28422 -432.061463 
L 394.125169 -435.664876 
L 398.302129 -439.96909 
L 402.293384 -440.418526 
L 416.690301 -444.39609 
L 418.337842 -445.633984 
L 419.955696 -447.815528 
L 426.150458 -449.021806 
L 436.058439 -451.793092 
L 441.265024 -451.793092 
L 442.520827 -453.27399 
L 450.851555 -453.27399 
L 454.198096 -454.480267 
L 455.286454 -454.480267 
L 461.553307 -455.071502 
L 463.548688 -455.071502 
L 482.192303 -459.87258 
L 484.565704 -460.303431 
L 485.343098 -462.46074 
L 500.936074 -465.541397 
L 501.584368 -466.887907 
L 502.228016 -468.753628 
L 517.523061 -474.231356 
L 518.062333 -474.231356 
L 523.789914 -474.859435 
L 527.253259 -475.773171 
L 532.896275 -476.40125 
L 533.350901 -476.40125 
L 536.031352 -476.40125 
L 541.991066 -476.40125 
L 544.027172 -476.40125 
L 544.82886 -476.40125 
L 557.117234 -476.40125 
L 558.498622 -476.40125 
L 560.195996 -476.40125 
L 565.10369 -476.40125 
L 571.25599 -476.40125 
L 571.25599 -476.40125 
L 571.25599 -476.40125 
L 565.10369 -476.40125 
L 560.195996 -476.40125 
L 558.498622 -476.40125 
L 557.117234 -476.40125 
L 544.82886 -476.40125 
L 544.027172 -476.40125 
L 541.991066 -476.40125 
L 536.031352 -476.40125 
L 533.350901 -476.40125 
L 532.896275 -476.40125 
L 527.253259 -475.773171 
L 523.789914 -474.859435 
L 518.062333 -474.231356 
L 517.523061 -474.231356 
L 502.228016 -468.753628 
L 501.584368 -466.887907 
L 500.936074 -465.541397 
L 485.343098 -462.46074 
L 484.565704 -460.303431 
L 482.192303 -459.87258 
L 463.548688 -455.071502 
L 461.553307 -455.071502 
L 455.286454 -454.480267 
L 454.198096 -454.480267 
L 450.851555 -453.27399 
L 442.520827 -453.27399 
L 441.265024 -451.793092 
L 436.058439 -451.793092 
L 426.150458 -449.021806 
L 419.955696 -447.815528 
L 418.337842 -445.633984 
L 416.690301 -444.39609 
L 402.293384 -440.418526 
L 398.302129 -439.96909 
L 394.125169 -435.664876 
L 380.28422 -432.061463 
L 377.7548 -429.156036 
L 363.91385 -423.633353 
L 343.878138 -414.994022 
L 340.056776 -414.556741 
L 336.065522 -414.23326 
L 331.888562 -401.824831 
L 327.507769 -401.824831 
L 322.902224 -401.824831 
L 318.047612 -399.975854 
L 312.915447 -399.777403 
L 307.472056 -395.081497 
L 301.677243 -395.080696 
L 295.48248 -385.860516 
L 281.64153 -377.797113 
L 273.828914 -373.186263 
L 245.235448 -358.534527 
L 233.245872 -326.597057 
L 219.404922 -326.597057 
L 182.998841 -296.961839 
L 157.168315 -246.689326 
L 120.762233 -205.511966 
z
" style="stroke: #9467bd; stroke-opacity: 0.2"/>
    </defs>
    <g clip-path="url(#p5555e61825)">
     <use xlink:href="#mf71e460d82" x="0" y="673.94225" style="fill: #9467bd; fill-opacity: 0.2; stroke: #9467bd; stroke-opacity: 0.2"/>
    </g>
   </g>
   <g id="matplotlib.axis_1">
    <g id="xtick_1">
     <g id="line2d_1">
      <path d="M 58.525625 620.901 
L 58.525625 177.381 
" clip-path="url(#p5555e61825)" style="fill: none; stroke: #b0b0b0; stroke-width: 0.8; stroke-linecap: square"/>
     </g>
     <g id="line2d_2">
      <defs>
       <path id="mb8bac30af5" d="M 0 0 
L 0 3.5 
" style="stroke: #000000; stroke-width: 0.8"/>
      </defs>
      <g>
       <use xlink:href="#mb8bac30af5" x="58.525625" y="620.901" style="stroke: #000000; stroke-width: 0.8"/>
      </g>
     </g>
     <g id="text_1">
      <!-- $\mathdefault{10^{0}}$ -->
      <g transform="translate(42.685625 641.578188) scale(0.18 -0.18)">
       <defs>
        <path id="DejaVuSans-31" d="M 794 531 
L 1825 531 
L 1825 4091 
L 703 3866 
L 703 4441 
L 1819 4666 
L 2450 4666 
L 2450 531 
L 3481 531 
L 3481 0 
L 794 0 
L 794 531 
z
" transform="scale(0.015625)"/>
        <path id="DejaVuSans-30" d="M 2034 4250 
Q 1547 4250 1301 3770 
Q 1056 3291 1056 2328 
Q 1056 1369 1301 889 
Q 1547 409 2034 409 
Q 2525 409 2770 889 
Q 3016 1369 3016 2328 
Q 3016 3291 2770 3770 
Q 2525 4250 2034 4250 
z
M 2034 4750 
Q 2819 4750 3233 4129 
Q 3647 3509 3647 2328 
Q 3647 1150 3233 529 
Q 2819 -91 2034 -91 
Q 1250 -91 836 529 
Q 422 1150 422 2328 
Q 422 3509 836 4129 
Q 1250 4750 2034 4750 
z
" transform="scale(0.015625)"/>
       </defs>
       <use xlink:href="#DejaVuSans-31" transform="translate(0 0.765625)"/>
       <use xlink:href="#DejaVuSans-30" transform="translate(63.623047 0.765625)"/>
       <use xlink:href="#DejaVuSans-30" transform="translate(128.203125 39.046875) scale(0.7)"/>
      </g>
     </g>
    </g>
    <g id="xtick_2">
     <g id="line2d_3">
      <path d="M 265.271161 620.901 
L 265.271161 177.381 
" clip-path="url(#p5555e61825)" style="fill: none; stroke: #b0b0b0; stroke-width: 0.8; stroke-linecap: square"/>
     </g>
     <g id="line2d_4">
      <g>
       <use xlink:href="#mb8bac30af5" x="265.271161" y="620.901" style="stroke: #000000; stroke-width: 0.8"/>
      </g>
     </g>
     <g id="text_2">
      <!-- $\mathdefault{10^{1}}$ -->
      <g transform="translate(249.431161 641.578188) scale(0.18 -0.18)">
       <use xlink:href="#DejaVuSans-31" transform="translate(0 0.684375)"/>
       <use xlink:href="#DejaVuSans-30" transform="translate(63.623047 0.684375)"/>
       <use xlink:href="#DejaVuSans-31" transform="translate(128.203125 38.965625) scale(0.7)"/>
      </g>
     </g>
    </g>
    <g id="xtick_3">
     <g id="line2d_5">
      <path d="M 472.016697 620.901 
L 472.016697 177.381 
" clip-path="url(#p5555e61825)" style="fill: none; stroke: #b0b0b0; stroke-width: 0.8; stroke-linecap: square"/>
     </g>
     <g id="line2d_6">
      <g>
       <use xlink:href="#mb8bac30af5" x="472.016697" y="620.901" style="stroke: #000000; stroke-width: 0.8"/>
      </g>
     </g>
     <g id="text_3">
      <!-- $\mathdefault{10^{2}}$ -->
      <g transform="translate(456.176697 641.578188) scale(0.18 -0.18)">
       <defs>
        <path id="DejaVuSans-32" d="M 1228 531 
L 3431 531 
L 3431 0 
L 469 0 
L 469 531 
Q 828 903 1448 1529 
Q 2069 2156 2228 2338 
Q 2531 2678 2651 2914 
Q 2772 3150 2772 3378 
Q 2772 3750 2511 3984 
Q 2250 4219 1831 4219 
Q 1534 4219 1204 4116 
Q 875 4013 500 3803 
L 500 4441 
Q 881 4594 1212 4672 
Q 1544 4750 1819 4750 
Q 2544 4750 2975 4387 
Q 3406 4025 3406 3419 
Q 3406 3131 3298 2873 
Q 3191 2616 2906 2266 
Q 2828 2175 2409 1742 
Q 1991 1309 1228 531 
z
" transform="scale(0.015625)"/>
       </defs>
       <use xlink:href="#DejaVuSans-31" transform="translate(0 0.765625)"/>
       <use xlink:href="#DejaVuSans-30" transform="translate(63.623047 0.765625)"/>
       <use xlink:href="#DejaVuSans-32" transform="translate(128.203125 39.046875) scale(0.7)"/>
      </g>
     </g>
    </g>
    <g id="xtick_4">
     <g id="line2d_7">
      <defs>
       <path id="me0782505f7" d="M 0 0 
L 0 2 
" style="stroke: #000000; stroke-width: 0.6"/>
      </defs>
      <g>
       <use xlink:href="#me0782505f7" x="120.762233" y="620.901" style="stroke: #000000; stroke-width: 0.6"/>
      </g>
     </g>
    </g>
    <g id="xtick_5">
     <g id="line2d_8">
      <g>
       <use xlink:href="#me0782505f7" x="157.168315" y="620.901" style="stroke: #000000; stroke-width: 0.6"/>
      </g>
     </g>
    </g>
    <g id="xtick_6">
     <g id="line2d_9">
      <g>
       <use xlink:href="#me0782505f7" x="182.998841" y="620.901" style="stroke: #000000; stroke-width: 0.6"/>
      </g>
     </g>
    </g>
    <g id="xtick_7">
     <g id="line2d_10">
      <g>
       <use xlink:href="#me0782505f7" x="203.034553" y="620.901" style="stroke: #000000; stroke-width: 0.6"/>
      </g>
     </g>
    </g>
    <g id="xtick_8">
     <g id="line2d_11">
      <g>
       <use xlink:href="#me0782505f7" x="219.404922" y="620.901" style="stroke: #000000; stroke-width: 0.6"/>
      </g>
     </g>
    </g>
    <g id="xtick_9">
     <g id="line2d_12">
      <g>
       <use xlink:href="#me0782505f7" x="233.245872" y="620.901" style="stroke: #000000; stroke-width: 0.6"/>
      </g>
     </g>
    </g>
    <g id="xtick_10">
     <g id="line2d_13">
      <g>
       <use xlink:href="#me0782505f7" x="245.235448" y="620.901" style="stroke: #000000; stroke-width: 0.6"/>
      </g>
     </g>
    </g>
    <g id="xtick_11">
     <g id="line2d_14">
      <g>
       <use xlink:href="#me0782505f7" x="255.811004" y="620.901" style="stroke: #000000; stroke-width: 0.6"/>
      </g>
     </g>
    </g>
    <g id="xtick_12">
     <g id="line2d_15">
      <g>
       <use xlink:href="#me0782505f7" x="327.507769" y="620.901" style="stroke: #000000; stroke-width: 0.6"/>
      </g>
     </g>
    </g>
    <g id="xtick_13">
     <g id="line2d_16">
      <g>
       <use xlink:href="#me0782505f7" x="363.91385" y="620.901" style="stroke: #000000; stroke-width: 0.6"/>
      </g>
     </g>
    </g>
    <g id="xtick_14">
     <g id="line2d_17">
      <g>
       <use xlink:href="#me0782505f7" x="389.744376" y="620.901" style="stroke: #000000; stroke-width: 0.6"/>
      </g>
     </g>
    </g>
    <g id="xtick_15">
     <g id="line2d_18">
      <g>
       <use xlink:href="#me0782505f7" x="409.780089" y="620.901" style="stroke: #000000; stroke-width: 0.6"/>
      </g>
     </g>
    </g>
    <g id="xtick_16">
     <g id="line2d_19">
      <g>
       <use xlink:href="#me0782505f7" x="426.150458" y="620.901" style="stroke: #000000; stroke-width: 0.6"/>
      </g>
     </g>
    </g>
    <g id="xtick_17">
     <g id="line2d_20">
      <g>
       <use xlink:href="#me0782505f7" x="439.991408" y="620.901" style="stroke: #000000; stroke-width: 0.6"/>
      </g>
     </g>
    </g>
    <g id="xtick_18">
     <g id="line2d_21">
      <g>
       <use xlink:href="#me0782505f7" x="451.980984" y="620.901" style="stroke: #000000; stroke-width: 0.6"/>
      </g>
     </g>
    </g>
    <g id="xtick_19">
     <g id="line2d_22">
      <g>
       <use xlink:href="#me0782505f7" x="462.55654" y="620.901" style="stroke: #000000; stroke-width: 0.6"/>
      </g>
     </g>
    </g>
    <g id="xtick_20">
     <g id="line2d_23">
      <g>
       <use xlink:href="#me0782505f7" x="534.253305" y="620.901" style="stroke: #000000; stroke-width: 0.6"/>
      </g>
     </g>
    </g>
    <g id="xtick_21">
     <g id="line2d_24">
      <g>
       <use xlink:href="#me0782505f7" x="570.659386" y="620.901" style="stroke: #000000; stroke-width: 0.6"/>
      </g>
     </g>
    </g>
    <g id="xtick_22">
     <g id="line2d_25">
      <g>
       <use xlink:href="#me0782505f7" x="596.489912" y="620.901" style="stroke: #000000; stroke-width: 0.6"/>
      </g>
     </g>
    </g>
    <g id="xtick_23">
     <g id="line2d_26">
      <g>
       <use xlink:href="#me0782505f7" x="616.525625" y="620.901" style="stroke: #000000; stroke-width: 0.6"/>
      </g>
     </g>
    </g>
    <g id="text_4">
     <!-- N patterns -->
     <g transform="translate(290.174375 662.998812) scale(0.18 -0.18)">
      <defs>
       <path id="DejaVuSans-4e" d="M 628 4666 
L 1478 4666 
L 3547 763 
L 3547 4666 
L 4159 4666 
L 4159 0 
L 3309 0 
L 1241 3903 
L 1241 0 
L 628 0 
L 628 4666 
z
" transform="scale(0.015625)"/>
       <path id="DejaVuSans-20" transform="scale(0.015625)"/>
       <path id="DejaVuSans-70" d="M 1159 525 
L 1159 -1331 
L 581 -1331 
L 581 3500 
L 1159 3500 
L 1159 2969 
Q 1341 3281 1617 3432 
Q 1894 3584 2278 3584 
Q 2916 3584 3314 3078 
Q 3713 2572 3713 1747 
Q 3713 922 3314 415 
Q 2916 -91 2278 -91 
Q 1894 -91 1617 61 
Q 1341 213 1159 525 
z
M 3116 1747 
Q 3116 2381 2855 2742 
Q 2594 3103 2138 3103 
Q 1681 3103 1420 2742 
Q 1159 2381 1159 1747 
Q 1159 1113 1420 752 
Q 1681 391 2138 391 
Q 2594 391 2855 752 
Q 3116 1113 3116 1747 
z
" transform="scale(0.015625)"/>
       <path id="DejaVuSans-61" d="M 2194 1759 
Q 1497 1759 1228 1600 
Q 959 1441 959 1056 
Q 959 750 1161 570 
Q 1363 391 1709 391 
Q 2188 391 2477 730 
Q 2766 1069 2766 1631 
L 2766 1759 
L 2194 1759 
z
M 3341 1997 
L 3341 0 
L 2766 0 
L 2766 531 
Q 2569 213 2275 61 
Q 1981 -91 1556 -91 
Q 1019 -91 701 211 
Q 384 513 384 1019 
Q 384 1609 779 1909 
Q 1175 2209 1959 2209 
L 2766 2209 
L 2766 2266 
Q 2766 2663 2505 2880 
Q 2244 3097 1772 3097 
Q 1472 3097 1187 3025 
Q 903 2953 641 2809 
L 641 3341 
Q 956 3463 1253 3523 
Q 1550 3584 1831 3584 
Q 2591 3584 2966 3190 
Q 3341 2797 3341 1997 
z
" transform="scale(0.015625)"/>
       <path id="DejaVuSans-74" d="M 1172 4494 
L 1172 3500 
L 2356 3500 
L 2356 3053 
L 1172 3053 
L 1172 1153 
Q 1172 725 1289 603 
Q 1406 481 1766 481 
L 2356 481 
L 2356 0 
L 1766 0 
Q 1100 0 847 248 
Q 594 497 594 1153 
L 594 3053 
L 172 3053 
L 172 3500 
L 594 3500 
L 594 4494 
L 1172 4494 
z
" transform="scale(0.015625)"/>
       <path id="DejaVuSans-65" d="M 3597 1894 
L 3597 1613 
L 953 1613 
Q 991 1019 1311 708 
Q 1631 397 2203 397 
Q 2534 397 2845 478 
Q 3156 559 3463 722 
L 3463 178 
Q 3153 47 2828 -22 
Q 2503 -91 2169 -91 
Q 1331 -91 842 396 
Q 353 884 353 1716 
Q 353 2575 817 3079 
Q 1281 3584 2069 3584 
Q 2775 3584 3186 3129 
Q 3597 2675 3597 1894 
z
M 3022 2063 
Q 3016 2534 2758 2815 
Q 2500 3097 2075 3097 
Q 1594 3097 1305 2825 
Q 1016 2553 972 2059 
L 3022 2063 
z
" transform="scale(0.015625)"/>
       <path id="DejaVuSans-72" d="M 2631 2963 
Q 2534 3019 2420 3045 
Q 2306 3072 2169 3072 
Q 1681 3072 1420 2755 
Q 1159 2438 1159 1844 
L 1159 0 
L 581 0 
L 581 3500 
L 1159 3500 
L 1159 2956 
Q 1341 3275 1631 3429 
Q 1922 3584 2338 3584 
Q 2397 3584 2469 3576 
Q 2541 3569 2628 3553 
L 2631 2963 
z
" transform="scale(0.015625)"/>
       <path id="DejaVuSans-6e" d="M 3513 2113 
L 3513 0 
L 2938 0 
L 2938 2094 
Q 2938 2591 2744 2837 
Q 2550 3084 2163 3084 
Q 1697 3084 1428 2787 
Q 1159 2491 1159 1978 
L 1159 0 
L 581 0 
L 581 3500 
L 1159 3500 
L 1159 2956 
Q 1366 3272 1645 3428 
Q 1925 3584 2291 3584 
Q 2894 3584 3203 3211 
Q 3513 2838 3513 2113 
z
" transform="scale(0.015625)"/>
       <path id="DejaVuSans-73" d="M 2834 3397 
L 2834 2853 
Q 2591 2978 2328 3040 
Q 2066 3103 1784 3103 
Q 1356 3103 1142 2972 
Q 928 2841 928 2578 
Q 928 2378 1081 2264 
Q 1234 2150 1697 2047 
L 1894 2003 
Q 2506 1872 2764 1633 
Q 3022 1394 3022 966 
Q 3022 478 2636 193 
Q 2250 -91 1575 -91 
Q 1294 -91 989 -36 
Q 684 19 347 128 
L 347 722 
Q 666 556 975 473 
Q 1284 391 1588 391 
Q 1994 391 2212 530 
Q 2431 669 2431 922 
Q 2431 1156 2273 1281 
Q 2116 1406 1581 1522 
L 1381 1569 
Q 847 1681 609 1914 
Q 372 2147 372 2553 
Q 372 3047 722 3315 
Q 1072 3584 1716 3584 
Q 2034 3584 2315 3537 
Q 2597 3491 2834 3397 
z
" transform="scale(0.015625)"/>
      </defs>
      <use xlink:href="#DejaVuSans-4e"/>
      <use xlink:href="#DejaVuSans-20" transform="translate(74.804688 0)"/>
      <use xlink:href="#DejaVuSans-70" transform="translate(106.591797 0)"/>
      <use xlink:href="#DejaVuSans-61" transform="translate(170.068359 0)"/>
      <use xlink:href="#DejaVuSans-74" transform="translate(231.347656 0)"/>
      <use xlink:href="#DejaVuSans-74" transform="translate(270.556641 0)"/>
      <use xlink:href="#DejaVuSans-65" transform="translate(309.765625 0)"/>
      <use xlink:href="#DejaVuSans-72" transform="translate(371.289062 0)"/>
      <use xlink:href="#DejaVuSans-6e" transform="translate(410.652344 0)"/>
      <use xlink:href="#DejaVuSans-73" transform="translate(474.03125 0)"/>
     </g>
    </g>
   </g>
   <g id="matplotlib.axis_2">
    <g id="ytick_1">
     <g id="line2d_27">
      <path d="M 58.525625 619.033152 
L 616.525625 619.033152 
" clip-path="url(#p5555e61825)" style="fill: none; stroke: #b0b0b0; stroke-width: 0.8; stroke-linecap: square"/>
     </g>
     <g id="line2d_28">
      <defs>
       <path id="m98ea678e6f" d="M 0 0 
L -3.5 0 
" style="stroke: #000000; stroke-width: 0.8"/>
      </defs>
      <g>
       <use xlink:href="#m98ea678e6f" x="58.525625" y="619.033152" style="stroke: #000000; stroke-width: 0.8"/>
      </g>
     </g>
     <g id="text_5">
      <!-- 30 -->
      <g transform="translate(28.620625 625.871746) scale(0.18 -0.18)">
       <defs>
        <path id="DejaVuSans-33" d="M 2597 2516 
Q 3050 2419 3304 2112 
Q 3559 1806 3559 1356 
Q 3559 666 3084 287 
Q 2609 -91 1734 -91 
Q 1441 -91 1130 -33 
Q 819 25 488 141 
L 488 750 
Q 750 597 1062 519 
Q 1375 441 1716 441 
Q 2309 441 2620 675 
Q 2931 909 2931 1356 
Q 2931 1769 2642 2001 
Q 2353 2234 1838 2234 
L 1294 2234 
L 1294 2753 
L 1863 2753 
Q 2328 2753 2575 2939 
Q 2822 3125 2822 3475 
Q 2822 3834 2567 4026 
Q 2313 4219 1838 4219 
Q 1578 4219 1281 4162 
Q 984 4106 628 3988 
L 628 4550 
Q 988 4650 1302 4700 
Q 1616 4750 1894 4750 
Q 2613 4750 3031 4423 
Q 3450 4097 3450 3541 
Q 3450 3153 3228 2886 
Q 3006 2619 2597 2516 
z
" transform="scale(0.015625)"/>
       </defs>
       <use xlink:href="#DejaVuSans-33"/>
       <use xlink:href="#DejaVuSans-30" transform="translate(63.623047 0)"/>
      </g>
     </g>
    </g>
    <g id="ytick_2">
     <g id="line2d_29">
      <path d="M 58.525625 566.434713 
L 616.525625 566.434713 
" clip-path="url(#p5555e61825)" style="fill: none; stroke: #b0b0b0; stroke-width: 0.8; stroke-linecap: square"/>
     </g>
     <g id="line2d_30">
      <g>
       <use xlink:href="#m98ea678e6f" x="58.525625" y="566.434713" style="stroke: #000000; stroke-width: 0.8"/>
      </g>
     </g>
     <g id="text_6">
      <!-- 32 -->
      <g transform="translate(28.620625 573.273307) scale(0.18 -0.18)">
       <use xlink:href="#DejaVuSans-33"/>
       <use xlink:href="#DejaVuSans-32" transform="translate(63.623047 0)"/>
      </g>
     </g>
    </g>
    <g id="ytick_3">
     <g id="line2d_31">
      <path d="M 58.525625 513.836274 
L 616.525625 513.836274 
" clip-path="url(#p5555e61825)" style="fill: none; stroke: #b0b0b0; stroke-width: 0.8; stroke-linecap: square"/>
     </g>
     <g id="line2d_32">
      <g>
       <use xlink:href="#m98ea678e6f" x="58.525625" y="513.836274" style="stroke: #000000; stroke-width: 0.8"/>
      </g>
     </g>
     <g id="text_7">
      <!-- 34 -->
      <g transform="translate(28.620625 520.674868) scale(0.18 -0.18)">
       <defs>
        <path id="DejaVuSans-34" d="M 2419 4116 
L 825 1625 
L 2419 1625 
L 2419 4116 
z
M 2253 4666 
L 3047 4666 
L 3047 1625 
L 3713 1625 
L 3713 1100 
L 3047 1100 
L 3047 0 
L 2419 0 
L 2419 1100 
L 313 1100 
L 313 1709 
L 2253 4666 
z
" transform="scale(0.015625)"/>
       </defs>
       <use xlink:href="#DejaVuSans-33"/>
       <use xlink:href="#DejaVuSans-34" transform="translate(63.623047 0)"/>
      </g>
     </g>
    </g>
    <g id="ytick_4">
     <g id="line2d_33">
      <path d="M 58.525625 461.237835 
L 616.525625 461.237835 
" clip-path="url(#p5555e61825)" style="fill: none; stroke: #b0b0b0; stroke-width: 0.8; stroke-linecap: square"/>
     </g>
     <g id="line2d_34">
      <g>
       <use xlink:href="#m98ea678e6f" x="58.525625" y="461.237835" style="stroke: #000000; stroke-width: 0.8"/>
      </g>
     </g>
     <g id="text_8">
      <!-- 36 -->
      <g transform="translate(28.620625 468.076429) scale(0.18 -0.18)">
       <defs>
        <path id="DejaVuSans-36" d="M 2113 2584 
Q 1688 2584 1439 2293 
Q 1191 2003 1191 1497 
Q 1191 994 1439 701 
Q 1688 409 2113 409 
Q 2538 409 2786 701 
Q 3034 994 3034 1497 
Q 3034 2003 2786 2293 
Q 2538 2584 2113 2584 
z
M 3366 4563 
L 3366 3988 
Q 3128 4100 2886 4159 
Q 2644 4219 2406 4219 
Q 1781 4219 1451 3797 
Q 1122 3375 1075 2522 
Q 1259 2794 1537 2939 
Q 1816 3084 2150 3084 
Q 2853 3084 3261 2657 
Q 3669 2231 3669 1497 
Q 3669 778 3244 343 
Q 2819 -91 2113 -91 
Q 1303 -91 875 529 
Q 447 1150 447 2328 
Q 447 3434 972 4092 
Q 1497 4750 2381 4750 
Q 2619 4750 2861 4703 
Q 3103 4656 3366 4563 
z
" transform="scale(0.015625)"/>
       </defs>
       <use xlink:href="#DejaVuSans-33"/>
       <use xlink:href="#DejaVuSans-36" transform="translate(63.623047 0)"/>
      </g>
     </g>
    </g>
    <g id="ytick_5">
     <g id="line2d_35">
      <path d="M 58.525625 408.639396 
L 616.525625 408.639396 
" clip-path="url(#p5555e61825)" style="fill: none; stroke: #b0b0b0; stroke-width: 0.8; stroke-linecap: square"/>
     </g>
     <g id="line2d_36">
      <g>
       <use xlink:href="#m98ea678e6f" x="58.525625" y="408.639396" style="stroke: #000000; stroke-width: 0.8"/>
      </g>
     </g>
     <g id="text_9">
      <!-- 38 -->
      <g transform="translate(28.620625 415.47799) scale(0.18 -0.18)">
       <defs>
        <path id="DejaVuSans-38" d="M 2034 2216 
Q 1584 2216 1326 1975 
Q 1069 1734 1069 1313 
Q 1069 891 1326 650 
Q 1584 409 2034 409 
Q 2484 409 2743 651 
Q 3003 894 3003 1313 
Q 3003 1734 2745 1975 
Q 2488 2216 2034 2216 
z
M 1403 2484 
Q 997 2584 770 2862 
Q 544 3141 544 3541 
Q 544 4100 942 4425 
Q 1341 4750 2034 4750 
Q 2731 4750 3128 4425 
Q 3525 4100 3525 3541 
Q 3525 3141 3298 2862 
Q 3072 2584 2669 2484 
Q 3125 2378 3379 2068 
Q 3634 1759 3634 1313 
Q 3634 634 3220 271 
Q 2806 -91 2034 -91 
Q 1263 -91 848 271 
Q 434 634 434 1313 
Q 434 1759 690 2068 
Q 947 2378 1403 2484 
z
M 1172 3481 
Q 1172 3119 1398 2916 
Q 1625 2713 2034 2713 
Q 2441 2713 2670 2916 
Q 2900 3119 2900 3481 
Q 2900 3844 2670 4047 
Q 2441 4250 2034 4250 
Q 1625 4250 1398 4047 
Q 1172 3844 1172 3481 
z
" transform="scale(0.015625)"/>
       </defs>
       <use xlink:href="#DejaVuSans-33"/>
       <use xlink:href="#DejaVuSans-38" transform="translate(63.623047 0)"/>
      </g>
     </g>
    </g>
    <g id="ytick_6">
     <g id="line2d_37">
      <path d="M 58.525625 356.040958 
L 616.525625 356.040958 
" clip-path="url(#p5555e61825)" style="fill: none; stroke: #b0b0b0; stroke-width: 0.8; stroke-linecap: square"/>
     </g>
     <g id="line2d_38">
      <g>
       <use xlink:href="#m98ea678e6f" x="58.525625" y="356.040958" style="stroke: #000000; stroke-width: 0.8"/>
      </g>
     </g>
     <g id="text_10">
      <!-- 40 -->
      <g transform="translate(28.620625 362.879551) scale(0.18 -0.18)">
       <use xlink:href="#DejaVuSans-34"/>
       <use xlink:href="#DejaVuSans-30" transform="translate(63.623047 0)"/>
      </g>
     </g>
    </g>
    <g id="ytick_7">
     <g id="line2d_39">
      <path d="M 58.525625 303.442519 
L 616.525625 303.442519 
" clip-path="url(#p5555e61825)" style="fill: none; stroke: #b0b0b0; stroke-width: 0.8; stroke-linecap: square"/>
     </g>
     <g id="line2d_40">
      <g>
       <use xlink:href="#m98ea678e6f" x="58.525625" y="303.442519" style="stroke: #000000; stroke-width: 0.8"/>
      </g>
     </g>
     <g id="text_11">
      <!-- 42 -->
      <g transform="translate(28.620625 310.281112) scale(0.18 -0.18)">
       <use xlink:href="#DejaVuSans-34"/>
       <use xlink:href="#DejaVuSans-32" transform="translate(63.623047 0)"/>
      </g>
     </g>
    </g>
    <g id="ytick_8">
     <g id="line2d_41">
      <path d="M 58.525625 250.84408 
L 616.525625 250.84408 
" clip-path="url(#p5555e61825)" style="fill: none; stroke: #b0b0b0; stroke-width: 0.8; stroke-linecap: square"/>
     </g>
     <g id="line2d_42">
      <g>
       <use xlink:href="#m98ea678e6f" x="58.525625" y="250.84408" style="stroke: #000000; stroke-width: 0.8"/>
      </g>
     </g>
     <g id="text_12">
      <!-- 44 -->
      <g transform="translate(28.620625 257.682673) scale(0.18 -0.18)">
       <use xlink:href="#DejaVuSans-34"/>
       <use xlink:href="#DejaVuSans-34" transform="translate(63.623047 0)"/>
      </g>
     </g>
    </g>
    <g id="ytick_9">
     <g id="line2d_43">
      <path d="M 58.525625 198.245641 
L 616.525625 198.245641 
" clip-path="url(#p5555e61825)" style="fill: none; stroke: #b0b0b0; stroke-width: 0.8; stroke-linecap: square"/>
     </g>
     <g id="line2d_44">
      <g>
       <use xlink:href="#m98ea678e6f" x="58.525625" y="198.245641" style="stroke: #000000; stroke-width: 0.8"/>
      </g>
     </g>
     <g id="text_13">
      <!-- 46 -->
      <g transform="translate(28.620625 205.084235) scale(0.18 -0.18)">
       <use xlink:href="#DejaVuSans-34"/>
       <use xlink:href="#DejaVuSans-36" transform="translate(63.623047 0)"/>
      </g>
     </g>
    </g>
    <g id="text_14">
     <!-- Total spectrum efficiency [b/s/Hz] -->
     <g transform="translate(20.877187 549.647719) rotate(-90) scale(0.18 -0.18)">
      <defs>
       <path id="DejaVuSans-54" d="M -19 4666 
L 3928 4666 
L 3928 4134 
L 2272 4134 
L 2272 0 
L 1638 0 
L 1638 4134 
L -19 4134 
L -19 4666 
z
" transform="scale(0.015625)"/>
       <path id="DejaVuSans-6f" d="M 1959 3097 
Q 1497 3097 1228 2736 
Q 959 2375 959 1747 
Q 959 1119 1226 758 
Q 1494 397 1959 397 
Q 2419 397 2687 759 
Q 2956 1122 2956 1747 
Q 2956 2369 2687 2733 
Q 2419 3097 1959 3097 
z
M 1959 3584 
Q 2709 3584 3137 3096 
Q 3566 2609 3566 1747 
Q 3566 888 3137 398 
Q 2709 -91 1959 -91 
Q 1206 -91 779 398 
Q 353 888 353 1747 
Q 353 2609 779 3096 
Q 1206 3584 1959 3584 
z
" transform="scale(0.015625)"/>
       <path id="DejaVuSans-6c" d="M 603 4863 
L 1178 4863 
L 1178 0 
L 603 0 
L 603 4863 
z
" transform="scale(0.015625)"/>
       <path id="DejaVuSans-63" d="M 3122 3366 
L 3122 2828 
Q 2878 2963 2633 3030 
Q 2388 3097 2138 3097 
Q 1578 3097 1268 2742 
Q 959 2388 959 1747 
Q 959 1106 1268 751 
Q 1578 397 2138 397 
Q 2388 397 2633 464 
Q 2878 531 3122 666 
L 3122 134 
Q 2881 22 2623 -34 
Q 2366 -91 2075 -91 
Q 1284 -91 818 406 
Q 353 903 353 1747 
Q 353 2603 823 3093 
Q 1294 3584 2113 3584 
Q 2378 3584 2631 3529 
Q 2884 3475 3122 3366 
z
" transform="scale(0.015625)"/>
       <path id="DejaVuSans-75" d="M 544 1381 
L 544 3500 
L 1119 3500 
L 1119 1403 
Q 1119 906 1312 657 
Q 1506 409 1894 409 
Q 2359 409 2629 706 
Q 2900 1003 2900 1516 
L 2900 3500 
L 3475 3500 
L 3475 0 
L 2900 0 
L 2900 538 
Q 2691 219 2414 64 
Q 2138 -91 1772 -91 
Q 1169 -91 856 284 
Q 544 659 544 1381 
z
M 1991 3584 
L 1991 3584 
z
" transform="scale(0.015625)"/>
       <path id="DejaVuSans-6d" d="M 3328 2828 
Q 3544 3216 3844 3400 
Q 4144 3584 4550 3584 
Q 5097 3584 5394 3201 
Q 5691 2819 5691 2113 
L 5691 0 
L 5113 0 
L 5113 2094 
Q 5113 2597 4934 2840 
Q 4756 3084 4391 3084 
Q 3944 3084 3684 2787 
Q 3425 2491 3425 1978 
L 3425 0 
L 2847 0 
L 2847 2094 
Q 2847 2600 2669 2842 
Q 2491 3084 2119 3084 
Q 1678 3084 1418 2786 
Q 1159 2488 1159 1978 
L 1159 0 
L 581 0 
L 581 3500 
L 1159 3500 
L 1159 2956 
Q 1356 3278 1631 3431 
Q 1906 3584 2284 3584 
Q 2666 3584 2933 3390 
Q 3200 3197 3328 2828 
z
" transform="scale(0.015625)"/>
       <path id="DejaVuSans-66" d="M 2375 4863 
L 2375 4384 
L 1825 4384 
Q 1516 4384 1395 4259 
Q 1275 4134 1275 3809 
L 1275 3500 
L 2222 3500 
L 2222 3053 
L 1275 3053 
L 1275 0 
L 697 0 
L 697 3053 
L 147 3053 
L 147 3500 
L 697 3500 
L 697 3744 
Q 697 4328 969 4595 
Q 1241 4863 1831 4863 
L 2375 4863 
z
" transform="scale(0.015625)"/>
       <path id="DejaVuSans-69" d="M 603 3500 
L 1178 3500 
L 1178 0 
L 603 0 
L 603 3500 
z
M 603 4863 
L 1178 4863 
L 1178 4134 
L 603 4134 
L 603 4863 
z
" transform="scale(0.015625)"/>
       <path id="DejaVuSans-79" d="M 2059 -325 
Q 1816 -950 1584 -1140 
Q 1353 -1331 966 -1331 
L 506 -1331 
L 506 -850 
L 844 -850 
Q 1081 -850 1212 -737 
Q 1344 -625 1503 -206 
L 1606 56 
L 191 3500 
L 800 3500 
L 1894 763 
L 2988 3500 
L 3597 3500 
L 2059 -325 
z
" transform="scale(0.015625)"/>
       <path id="DejaVuSans-5b" d="M 550 4863 
L 1875 4863 
L 1875 4416 
L 1125 4416 
L 1125 -397 
L 1875 -397 
L 1875 -844 
L 550 -844 
L 550 4863 
z
" transform="scale(0.015625)"/>
       <path id="DejaVuSans-62" d="M 3116 1747 
Q 3116 2381 2855 2742 
Q 2594 3103 2138 3103 
Q 1681 3103 1420 2742 
Q 1159 2381 1159 1747 
Q 1159 1113 1420 752 
Q 1681 391 2138 391 
Q 2594 391 2855 752 
Q 3116 1113 3116 1747 
z
M 1159 2969 
Q 1341 3281 1617 3432 
Q 1894 3584 2278 3584 
Q 2916 3584 3314 3078 
Q 3713 2572 3713 1747 
Q 3713 922 3314 415 
Q 2916 -91 2278 -91 
Q 1894 -91 1617 61 
Q 1341 213 1159 525 
L 1159 0 
L 581 0 
L 581 4863 
L 1159 4863 
L 1159 2969 
z
" transform="scale(0.015625)"/>
       <path id="DejaVuSans-2f" d="M 1625 4666 
L 2156 4666 
L 531 -594 
L 0 -594 
L 1625 4666 
z
" transform="scale(0.015625)"/>
       <path id="DejaVuSans-48" d="M 628 4666 
L 1259 4666 
L 1259 2753 
L 3553 2753 
L 3553 4666 
L 4184 4666 
L 4184 0 
L 3553 0 
L 3553 2222 
L 1259 2222 
L 1259 0 
L 628 0 
L 628 4666 
z
" transform="scale(0.015625)"/>
       <path id="DejaVuSans-7a" d="M 353 3500 
L 3084 3500 
L 3084 2975 
L 922 459 
L 3084 459 
L 3084 0 
L 275 0 
L 275 525 
L 2438 3041 
L 353 3041 
L 353 3500 
z
" transform="scale(0.015625)"/>
       <path id="DejaVuSans-5d" d="M 1947 4863 
L 1947 -844 
L 622 -844 
L 622 -397 
L 1369 -397 
L 1369 4416 
L 622 4416 
L 622 4863 
L 1947 4863 
z
" transform="scale(0.015625)"/>
      </defs>
      <use xlink:href="#DejaVuSans-54"/>
      <use xlink:href="#DejaVuSans-6f" transform="translate(44.083984 0)"/>
      <use xlink:href="#DejaVuSans-74" transform="translate(105.265625 0)"/>
      <use xlink:href="#DejaVuSans-61" transform="translate(144.474609 0)"/>
      <use xlink:href="#DejaVuSans-6c" transform="translate(205.753906 0)"/>
      <use xlink:href="#DejaVuSans-20" transform="translate(233.537109 0)"/>
      <use xlink:href="#DejaVuSans-73" transform="translate(265.324219 0)"/>
      <use xlink:href="#DejaVuSans-70" transform="translate(317.423828 0)"/>
      <use xlink:href="#DejaVuSans-65" transform="translate(380.900391 0)"/>
      <use xlink:href="#DejaVuSans-63" transform="translate(442.423828 0)"/>
      <use xlink:href="#DejaVuSans-74" transform="translate(497.404297 0)"/>
      <use xlink:href="#DejaVuSans-72" transform="translate(536.613281 0)"/>
      <use xlink:href="#DejaVuSans-75" transform="translate(577.726562 0)"/>
      <use xlink:href="#DejaVuSans-6d" transform="translate(641.105469 0)"/>
      <use xlink:href="#DejaVuSans-20" transform="translate(738.517578 0)"/>
      <use xlink:href="#DejaVuSans-65" transform="translate(770.304688 0)"/>
      <use xlink:href="#DejaVuSans-66" transform="translate(831.828125 0)"/>
      <use xlink:href="#DejaVuSans-66" transform="translate(867.033203 0)"/>
      <use xlink:href="#DejaVuSans-69" transform="translate(902.238281 0)"/>
      <use xlink:href="#DejaVuSans-63" transform="translate(930.021484 0)"/>
      <use xlink:href="#DejaVuSans-69" transform="translate(985.001953 0)"/>
      <use xlink:href="#DejaVuSans-65" transform="translate(1012.785156 0)"/>
      <use xlink:href="#DejaVuSans-6e" transform="translate(1074.308594 0)"/>
      <use xlink:href="#DejaVuSans-63" transform="translate(1137.6875 0)"/>
      <use xlink:href="#DejaVuSans-79" transform="translate(1192.667969 0)"/>
      <use xlink:href="#DejaVuSans-20" transform="translate(1251.847656 0)"/>
      <use xlink:href="#DejaVuSans-5b" transform="translate(1283.634766 0)"/>
      <use xlink:href="#DejaVuSans-62" transform="translate(1322.648438 0)"/>
      <use xlink:href="#DejaVuSans-2f" transform="translate(1386.125 0)"/>
      <use xlink:href="#DejaVuSans-73" transform="translate(1419.816406 0)"/>
      <use xlink:href="#DejaVuSans-2f" transform="translate(1471.916016 0)"/>
      <use xlink:href="#DejaVuSans-48" transform="translate(1505.607422 0)"/>
      <use xlink:href="#DejaVuSans-7a" transform="translate(1580.802734 0)"/>
      <use xlink:href="#DejaVuSans-5d" transform="translate(1633.292969 0)"/>
     </g>
    </g>
   </g>
   <g id="line2d_45">
    <path d="M 58.525625 197.541 
L 616.525625 197.541 
L 616.525625 197.541 
" clip-path="url(#p5555e61825)" style="fill: none; stroke-dasharray: 7.4,3.2; stroke-dashoffset: 0; stroke: #1f77b4; stroke-width: 2"/>
   </g>
   <g id="line2d_46">
    <path d="M 58.525625 600.741 
L 616.525625 600.741 
L 616.525625 600.741 
" clip-path="url(#p5555e61825)" style="fill: none; stroke-dasharray: 7.4,3.2; stroke-dashoffset: 0; stroke: #aec7e8; stroke-width: 2"/>
   </g>
   <g id="line2d_47">
    <defs>
     <path id="m3566fbe42f" d="M 0 5 
C 1.326016 5 2.597899 4.473168 3.535534 3.535534 
C 4.473168 2.597899 5 1.326016 5 0 
C 5 -1.326016 4.473168 -2.597899 3.535534 -3.535534 
C 2.597899 -4.473168 1.326016 -5 0 -5 
C -1.326016 -5 -2.597899 -4.473168 -3.535534 -3.535534 
C -4.473168 -2.597899 -5 -1.326016 -5 0 
C -5 1.326016 -4.473168 2.597899 -3.535534 3.535534 
C -2.597899 4.473168 -1.326016 5 0 5 
z
" style="stroke: #ffffff; stroke-width: 0.75"/>
    </defs>
    <g clip-path="url(#p5555e61825)">
     <use xlink:href="#m3566fbe42f" x="363.91385" y="267.150138" style="fill: #ff7f0e; stroke: #ffffff; stroke-width: 0.75"/>
     <use xlink:href="#m3566fbe42f" x="426.150458" y="236.368987" style="fill: #ff7f0e; stroke: #ffffff; stroke-width: 0.75"/>
     <use xlink:href="#m3566fbe42f" x="463.548688" y="218.870748" style="fill: #ff7f0e; stroke: #ffffff; stroke-width: 0.75"/>
     <use xlink:href="#m3566fbe42f" x="489.132203" y="211.878031" style="fill: #ff7f0e; stroke: #ffffff; stroke-width: 0.75"/>
     <use xlink:href="#m3566fbe42f" x="509.612047" y="205.720791" style="fill: #ff7f0e; stroke: #ffffff; stroke-width: 0.75"/>
     <use xlink:href="#m3566fbe42f" x="518.062333" y="199.710894" style="fill: #ff7f0e; stroke: #ffffff; stroke-width: 0.75"/>
     <use xlink:href="#m3566fbe42f" x="527.253259" y="198.169079" style="fill: #ff7f0e; stroke: #ffffff; stroke-width: 0.75"/>
     <use xlink:href="#m3566fbe42f" x="536.031352" y="197.541" style="fill: #ff7f0e; stroke: #ffffff; stroke-width: 0.75"/>
    </g>
   </g>
   <g id="line2d_48"/>
   <g id="LineCollection_1">
    <path d="M 363.91385 267.150138 
L 363.91385 267.150138 
" clip-path="url(#p5555e61825)" style="fill: none; stroke: #ff7f0e; stroke-width: 2; stroke-linecap: square"/>
    <path d="M 426.150458 236.368987 
L 426.150458 236.368987 
" clip-path="url(#p5555e61825)" style="fill: none; stroke: #ff7f0e; stroke-width: 2; stroke-linecap: square"/>
    <path d="M 463.548688 218.870748 
L 463.548688 218.870748 
" clip-path="url(#p5555e61825)" style="fill: none; stroke: #ff7f0e; stroke-width: 2; stroke-linecap: square"/>
    <path d="M 489.132203 211.878031 
L 489.132203 211.878031 
" clip-path="url(#p5555e61825)" style="fill: none; stroke: #ff7f0e; stroke-width: 2; stroke-linecap: square"/>
    <path d="M 509.612047 205.720791 
L 509.612047 205.720791 
" clip-path="url(#p5555e61825)" style="fill: none; stroke: #ff7f0e; stroke-width: 2; stroke-linecap: square"/>
    <path d="M 518.062333 199.710894 
L 518.062333 199.710894 
" clip-path="url(#p5555e61825)" style="fill: none; stroke: #ff7f0e; stroke-width: 2; stroke-linecap: square"/>
    <path d="M 527.253259 198.169079 
L 527.253259 198.169079 
" clip-path="url(#p5555e61825)" style="fill: none; stroke: #ff7f0e; stroke-width: 2; stroke-linecap: square"/>
    <path d="M 536.031352 197.541 
L 536.031352 197.541 
" clip-path="url(#p5555e61825)" style="fill: none; stroke: #ff7f0e; stroke-width: 2; stroke-linecap: square"/>
   </g>
   <g id="line2d_49">
    <defs>
     <path id="m46d94abcac" d="M 0 5 
C 1.326016 5 2.597899 4.473168 3.535534 3.535534 
C 4.473168 2.597899 5 1.326016 5 0 
C 5 -1.326016 4.473168 -2.597899 3.535534 -3.535534 
C 2.597899 -4.473168 1.326016 -5 0 -5 
C -1.326016 -5 -2.597899 -4.473168 -3.535534 -3.535534 
C -4.473168 -2.597899 -5 -1.326016 -5 0 
C -5 1.326016 -4.473168 2.597899 -3.535534 3.535534 
C -2.597899 4.473168 -1.326016 5 0 5 
z
" style="stroke: #ffffff; stroke-width: 0.75"/>
    </defs>
    <g clip-path="url(#p5555e61825)">
     <use xlink:href="#m46d94abcac" x="343.878138" y="266.221354" style="fill: #ffbb78; stroke: #ffffff; stroke-width: 0.75"/>
     <use xlink:href="#m46d94abcac" x="380.28422" y="244.786214" style="fill: #ffbb78; stroke: #ffffff; stroke-width: 0.75"/>
     <use xlink:href="#m46d94abcac" x="402.293384" y="236.363917" style="fill: #ffbb78; stroke: #ffffff; stroke-width: 0.75"/>
     <use xlink:href="#m46d94abcac" x="418.337842" y="228.308266" style="fill: #ffbb78; stroke: #ffffff; stroke-width: 0.75"/>
     <use xlink:href="#m46d94abcac" x="436.058439" y="224.330702" style="fill: #ffbb78; stroke: #ffffff; stroke-width: 0.75"/>
     <use xlink:href="#m46d94abcac" x="441.265024" y="222.149158" style="fill: #ffbb78; stroke: #ffffff; stroke-width: 0.75"/>
     <use xlink:href="#m46d94abcac" x="450.851555" y="220.66826" style="fill: #ffbb78; stroke: #ffffff; stroke-width: 0.75"/>
     <use xlink:href="#m46d94abcac" x="455.286454" y="219.461983" style="fill: #ffbb78; stroke: #ffffff; stroke-width: 0.75"/>
    </g>
   </g>
   <g id="line2d_50"/>
   <g id="LineCollection_2">
    <path d="M 343.878138 266.221354 
L 343.878138 266.221354 
" clip-path="url(#p5555e61825)" style="fill: none; stroke: #ffbb78; stroke-width: 2; stroke-linecap: square"/>
    <path d="M 380.28422 244.786214 
L 380.28422 244.786214 
" clip-path="url(#p5555e61825)" style="fill: none; stroke: #ffbb78; stroke-width: 2; stroke-linecap: square"/>
    <path d="M 402.293384 236.363917 
L 402.293384 236.363917 
" clip-path="url(#p5555e61825)" style="fill: none; stroke: #ffbb78; stroke-width: 2; stroke-linecap: square"/>
    <path d="M 418.337842 228.308266 
L 418.337842 228.308266 
" clip-path="url(#p5555e61825)" style="fill: none; stroke: #ffbb78; stroke-width: 2; stroke-linecap: square"/>
    <path d="M 436.058439 224.330702 
L 436.058439 224.330702 
" clip-path="url(#p5555e61825)" style="fill: none; stroke: #ffbb78; stroke-width: 2; stroke-linecap: square"/>
    <path d="M 441.265024 222.149158 
L 441.265024 222.149158 
" clip-path="url(#p5555e61825)" style="fill: none; stroke: #ffbb78; stroke-width: 2; stroke-linecap: square"/>
    <path d="M 450.851555 220.66826 
L 450.851555 220.66826 
" clip-path="url(#p5555e61825)" style="fill: none; stroke: #ffbb78; stroke-width: 2; stroke-linecap: square"/>
    <path d="M 455.286454 219.461983 
L 455.286454 219.461983 
" clip-path="url(#p5555e61825)" style="fill: none; stroke: #ffbb78; stroke-width: 2; stroke-linecap: square"/>
   </g>
   <g id="line2d_51">
    <defs>
     <path id="me8bc56eff3" d="M 0 5 
C 1.326016 5 2.597899 4.473168 3.535534 3.535534 
C 4.473168 2.597899 5 1.326016 5 0 
C 5 -1.326016 4.473168 -2.597899 3.535534 -3.535534 
C 2.597899 -4.473168 1.326016 -5 0 -5 
C -1.326016 -5 -2.597899 -4.473168 -3.535534 -3.535534 
C -4.473168 -2.597899 -5 -1.326016 -5 0 
C -5 1.326016 -4.473168 2.597899 -3.535534 3.535534 
C -2.597899 4.473168 -1.326016 5 0 5 
z
" style="stroke: #ffffff; stroke-width: 0.75"/>
    </defs>
    <g clip-path="url(#p5555e61825)">
     <use xlink:href="#me8bc56eff3" x="307.472056" y="278.860753" style="fill: #2ca02c; stroke: #ffffff; stroke-width: 0.75"/>
     <use xlink:href="#me8bc56eff3" x="343.878138" y="265.071079" style="fill: #2ca02c; stroke: #ffffff; stroke-width: 0.75"/>
     <use xlink:href="#me8bc56eff3" x="363.91385" y="252.91459" style="fill: #2ca02c; stroke: #ffffff; stroke-width: 0.75"/>
     <use xlink:href="#me8bc56eff3" x="380.28422" y="243.829895" style="fill: #2ca02c; stroke: #ffffff; stroke-width: 0.75"/>
     <use xlink:href="#me8bc56eff3" x="398.302129" y="238.277374" style="fill: #2ca02c; stroke: #ffffff; stroke-width: 0.75"/>
     <use xlink:href="#me8bc56eff3" x="406.114746" y="235.658787" style="fill: #2ca02c; stroke: #ffffff; stroke-width: 0.75"/>
     <use xlink:href="#me8bc56eff3" x="416.690301" y="234.763274" style="fill: #2ca02c; stroke: #ffffff; stroke-width: 0.75"/>
     <use xlink:href="#me8bc56eff3" x="426.150458" y="234.481237" style="fill: #2ca02c; stroke: #ffffff; stroke-width: 0.75"/>
     <use xlink:href="#me8bc56eff3" x="427.634599" y="234.481237" style="fill: #2ca02c; stroke: #ffffff; stroke-width: 0.75"/>
    </g>
   </g>
   <g id="line2d_52"/>
   <g id="LineCollection_3">
    <path d="M 307.472056 278.860753 
L 307.472056 278.860753 
" clip-path="url(#p5555e61825)" style="fill: none; stroke: #2ca02c; stroke-width: 2; stroke-linecap: square"/>
    <path d="M 343.878138 265.071079 
L 343.878138 265.071079 
" clip-path="url(#p5555e61825)" style="fill: none; stroke: #2ca02c; stroke-width: 2; stroke-linecap: square"/>
    <path d="M 363.91385 252.91459 
L 363.91385 252.91459 
" clip-path="url(#p5555e61825)" style="fill: none; stroke: #2ca02c; stroke-width: 2; stroke-linecap: square"/>
    <path d="M 380.28422 243.829895 
L 380.28422 243.829895 
" clip-path="url(#p5555e61825)" style="fill: none; stroke: #2ca02c; stroke-width: 2; stroke-linecap: square"/>
    <path d="M 398.302129 238.277374 
L 398.302129 238.277374 
" clip-path="url(#p5555e61825)" style="fill: none; stroke: #2ca02c; stroke-width: 2; stroke-linecap: square"/>
    <path d="M 406.114746 235.658787 
L 406.114746 235.658787 
" clip-path="url(#p5555e61825)" style="fill: none; stroke: #2ca02c; stroke-width: 2; stroke-linecap: square"/>
    <path d="M 416.690301 234.763274 
L 416.690301 234.763274 
" clip-path="url(#p5555e61825)" style="fill: none; stroke: #2ca02c; stroke-width: 2; stroke-linecap: square"/>
    <path d="M 426.150458 234.481237 
L 426.150458 234.481237 
" clip-path="url(#p5555e61825)" style="fill: none; stroke: #2ca02c; stroke-width: 2; stroke-linecap: square"/>
    <path d="M 427.634599 234.481237 
L 427.634599 234.481237 
" clip-path="url(#p5555e61825)" style="fill: none; stroke: #2ca02c; stroke-width: 2; stroke-linecap: square"/>
   </g>
   <g id="line2d_53">
    <defs>
     <path id="m076e96b37c" d="M 0 5 
C 1.326016 5 2.597899 4.473168 3.535534 3.535534 
C 4.473168 2.597899 5 1.326016 5 0 
C 5 -1.326016 4.473168 -2.597899 3.535534 -3.535534 
C 2.597899 -4.473168 1.326016 -5 0 -5 
C -1.326016 -5 -2.597899 -4.473168 -3.535534 -3.535534 
C -4.473168 -2.597899 -5 -1.326016 -5 0 
C -5 1.326016 -4.473168 2.597899 -3.535534 3.535534 
C -2.597899 4.473168 -1.326016 5 0 5 
z
" style="stroke: #ffffff; stroke-width: 0.75"/>
    </defs>
    <g clip-path="url(#p5555e61825)">
     <use xlink:href="#m076e96b37c" x="245.235448" y="315.407723" style="fill: #98df8a; stroke: #ffffff; stroke-width: 0.75"/>
     <use xlink:href="#m076e96b37c" x="281.64153" y="296.145137" style="fill: #98df8a; stroke: #ffffff; stroke-width: 0.75"/>
     <use xlink:href="#m076e96b37c" x="307.472056" y="281.994192" style="fill: #98df8a; stroke: #ffffff; stroke-width: 0.75"/>
     <use xlink:href="#m076e96b37c" x="318.047612" y="273.966396" style="fill: #98df8a; stroke: #ffffff; stroke-width: 0.75"/>
     <use xlink:href="#m076e96b37c" x="327.507769" y="272.117419" style="fill: #98df8a; stroke: #ffffff; stroke-width: 0.75"/>
     <use xlink:href="#m076e96b37c" x="331.888562" y="272.117419" style="fill: #98df8a; stroke: #ffffff; stroke-width: 0.75"/>
    </g>
   </g>
   <g id="line2d_54"/>
   <g id="LineCollection_4">
    <path d="M 245.235448 315.407723 
L 245.235448 315.407723 
" clip-path="url(#p5555e61825)" style="fill: none; stroke: #98df8a; stroke-width: 2; stroke-linecap: square"/>
    <path d="M 281.64153 296.145137 
L 281.64153 296.145137 
" clip-path="url(#p5555e61825)" style="fill: none; stroke: #98df8a; stroke-width: 2; stroke-linecap: square"/>
    <path d="M 307.472056 281.994192 
L 307.472056 281.994192 
" clip-path="url(#p5555e61825)" style="fill: none; stroke: #98df8a; stroke-width: 2; stroke-linecap: square"/>
    <path d="M 318.047612 273.966396 
L 318.047612 273.966396 
" clip-path="url(#p5555e61825)" style="fill: none; stroke: #98df8a; stroke-width: 2; stroke-linecap: square"/>
    <path d="M 327.507769 272.117419 
L 327.507769 272.117419 
" clip-path="url(#p5555e61825)" style="fill: none; stroke: #98df8a; stroke-width: 2; stroke-linecap: square"/>
    <path d="M 331.888562 272.117419 
L 331.888562 272.117419 
" clip-path="url(#p5555e61825)" style="fill: none; stroke: #98df8a; stroke-width: 2; stroke-linecap: square"/>
   </g>
   <g id="line2d_55">
    <defs>
     <path id="mcfb750d33a" d="M 0 5 
C 1.326016 5 2.597899 4.473168 3.535534 3.535534 
C 4.473168 2.597899 5 1.326016 5 0 
C 5 -1.326016 4.473168 -2.597899 3.535534 -3.535534 
C 2.597899 -4.473168 1.326016 -5 0 -5 
C -1.326016 -5 -2.597899 -4.473168 -3.535534 -3.535534 
C -4.473168 -2.597899 -5 -1.326016 -5 0 
C -5 1.326016 -4.473168 2.597899 -3.535534 3.535534 
C -2.597899 4.473168 -1.326016 5 0 5 
z
" style="stroke: #ffffff; stroke-width: 0.75"/>
    </defs>
    <g clip-path="url(#p5555e61825)">
     <use xlink:href="#mcfb750d33a" x="182.998841" y="391.046276" style="fill: #d62728; stroke: #ffffff; stroke-width: 0.75"/>
     <use xlink:href="#mcfb750d33a" x="219.404922" y="355.654715" style="fill: #d62728; stroke: #ffffff; stroke-width: 0.75"/>
     <use xlink:href="#mcfb750d33a" x="245.235448" y="347.345193" style="fill: #d62728; stroke: #ffffff; stroke-width: 0.75"/>
     <use xlink:href="#mcfb750d33a" x="265.271161" y="343.862439" style="fill: #d62728; stroke: #ffffff; stroke-width: 0.75"/>
     <use xlink:href="#mcfb750d33a" x="281.64153" y="342.46657" style="fill: #d62728; stroke: #ffffff; stroke-width: 0.75"/>
     <use xlink:href="#mcfb750d33a" x="295.48248" y="342.46657" style="fill: #d62728; stroke: #ffffff; stroke-width: 0.75"/>
    </g>
   </g>
   <g id="line2d_56"/>
   <g id="LineCollection_5">
    <path d="M 182.998841 391.046276 
L 182.998841 391.046276 
" clip-path="url(#p5555e61825)" style="fill: none; stroke: #d62728; stroke-width: 2; stroke-linecap: square"/>
    <path d="M 219.404922 355.654715 
L 219.404922 355.654715 
" clip-path="url(#p5555e61825)" style="fill: none; stroke: #d62728; stroke-width: 2; stroke-linecap: square"/>
    <path d="M 245.235448 347.345193 
L 245.235448 347.345193 
" clip-path="url(#p5555e61825)" style="fill: none; stroke: #d62728; stroke-width: 2; stroke-linecap: square"/>
    <path d="M 265.271161 343.862439 
L 265.271161 343.862439 
" clip-path="url(#p5555e61825)" style="fill: none; stroke: #d62728; stroke-width: 2; stroke-linecap: square"/>
    <path d="M 281.64153 342.46657 
L 281.64153 342.46657 
" clip-path="url(#p5555e61825)" style="fill: none; stroke: #d62728; stroke-width: 2; stroke-linecap: square"/>
    <path d="M 295.48248 342.46657 
L 295.48248 342.46657 
" clip-path="url(#p5555e61825)" style="fill: none; stroke: #d62728; stroke-width: 2; stroke-linecap: square"/>
   </g>
   <g id="line2d_57">
    <defs>
     <path id="med48a49b05" d="M 0 5 
C 1.326016 5 2.597899 4.473168 3.535534 3.535534 
C 4.473168 2.597899 5 1.326016 5 0 
C 5 -1.326016 4.473168 -2.597899 3.535534 -3.535534 
C 2.597899 -4.473168 1.326016 -5 0 -5 
C -1.326016 -5 -2.597899 -4.473168 -3.535534 -3.535534 
C -4.473168 -2.597899 -5 -1.326016 -5 0 
C -5 1.326016 -4.473168 2.597899 -3.535534 3.535534 
C -2.597899 4.473168 -1.326016 5 0 5 
z
" style="stroke: #ffffff; stroke-width: 0.75"/>
    </defs>
    <g clip-path="url(#p5555e61825)">
     <use xlink:href="#med48a49b05" x="120.762233" y="468.430284" style="fill: #ff9896; stroke: #ffffff; stroke-width: 0.75"/>
     <use xlink:href="#med48a49b05" x="157.168315" y="443.379271" style="fill: #ff9896; stroke: #ffffff; stroke-width: 0.75"/>
     <use xlink:href="#med48a49b05" x="182.998841" y="427.252924" style="fill: #ff9896; stroke: #ffffff; stroke-width: 0.75"/>
     <use xlink:href="#med48a49b05" x="203.034553" y="416.146883" style="fill: #ff9896; stroke: #ffffff; stroke-width: 0.75"/>
     <use xlink:href="#med48a49b05" x="219.404922" y="410.350378" style="fill: #ff9896; stroke: #ffffff; stroke-width: 0.75"/>
     <use xlink:href="#med48a49b05" x="233.245872" y="406.867623" style="fill: #ff9896; stroke: #ffffff; stroke-width: 0.75"/>
     <use xlink:href="#med48a49b05" x="245.235448" y="406.867623" style="fill: #ff9896; stroke: #ffffff; stroke-width: 0.75"/>
    </g>
   </g>
   <g id="line2d_58"/>
   <g id="LineCollection_6">
    <path d="M 120.762233 468.430284 
L 120.762233 468.430284 
" clip-path="url(#p5555e61825)" style="fill: none; stroke: #ff9896; stroke-width: 2; stroke-linecap: square"/>
    <path d="M 157.168315 443.379271 
L 157.168315 443.379271 
" clip-path="url(#p5555e61825)" style="fill: none; stroke: #ff9896; stroke-width: 2; stroke-linecap: square"/>
    <path d="M 182.998841 427.252924 
L 182.998841 427.252924 
" clip-path="url(#p5555e61825)" style="fill: none; stroke: #ff9896; stroke-width: 2; stroke-linecap: square"/>
    <path d="M 203.034553 416.146883 
L 203.034553 416.146883 
" clip-path="url(#p5555e61825)" style="fill: none; stroke: #ff9896; stroke-width: 2; stroke-linecap: square"/>
    <path d="M 219.404922 410.350378 
L 219.404922 410.350378 
" clip-path="url(#p5555e61825)" style="fill: none; stroke: #ff9896; stroke-width: 2; stroke-linecap: square"/>
    <path d="M 233.245872 406.867623 
L 233.245872 406.867623 
" clip-path="url(#p5555e61825)" style="fill: none; stroke: #ff9896; stroke-width: 2; stroke-linecap: square"/>
    <path d="M 245.235448 406.867623 
L 245.235448 406.867623 
" clip-path="url(#p5555e61825)" style="fill: none; stroke: #ff9896; stroke-width: 2; stroke-linecap: square"/>
   </g>
   <g id="line2d_59">
    <defs>
     <path id="mbfa76734dc" d="M 0 5 
C 1.326016 5 2.597899 4.473168 3.535534 3.535534 
C 4.473168 2.597899 5 1.326016 5 0 
C 5 -1.326016 4.473168 -2.597899 3.535534 -3.535534 
C 2.597899 -4.473168 1.326016 -5 0 -5 
C -1.326016 -5 -2.597899 -4.473168 -3.535534 -3.535534 
C -4.473168 -2.597899 -5 -1.326016 -5 0 
C -5 1.326016 -4.473168 2.597899 -3.535534 3.535534 
C -2.597899 4.473168 -1.326016 5 0 5 
z
" style="stroke: #ffffff; stroke-width: 0.75"/>
    </defs>
    <g clip-path="url(#p5555e61825)">
     <use xlink:href="#mbfa76734dc" x="120.762233" y="468.430284" style="fill: #9467bd; stroke: #ffffff; stroke-width: 0.75"/>
     <use xlink:href="#mbfa76734dc" x="157.168315" y="427.252924" style="fill: #9467bd; stroke: #ffffff; stroke-width: 0.75"/>
     <use xlink:href="#mbfa76734dc" x="182.998841" y="376.980411" style="fill: #9467bd; stroke: #ffffff; stroke-width: 0.75"/>
     <use xlink:href="#mbfa76734dc" x="219.404922" y="347.345193" style="fill: #9467bd; stroke: #ffffff; stroke-width: 0.75"/>
     <use xlink:href="#mbfa76734dc" x="233.245872" y="347.345193" style="fill: #9467bd; stroke: #ffffff; stroke-width: 0.75"/>
     <use xlink:href="#mbfa76734dc" x="245.235448" y="315.407723" style="fill: #9467bd; stroke: #ffffff; stroke-width: 0.75"/>
     <use xlink:href="#mbfa76734dc" x="273.828914" y="300.755987" style="fill: #9467bd; stroke: #ffffff; stroke-width: 0.75"/>
     <use xlink:href="#mbfa76734dc" x="281.64153" y="296.145137" style="fill: #9467bd; stroke: #ffffff; stroke-width: 0.75"/>
     <use xlink:href="#mbfa76734dc" x="295.48248" y="288.081734" style="fill: #9467bd; stroke: #ffffff; stroke-width: 0.75"/>
     <use xlink:href="#mbfa76734dc" x="301.677243" y="278.861554" style="fill: #9467bd; stroke: #ffffff; stroke-width: 0.75"/>
     <use xlink:href="#mbfa76734dc" x="307.472056" y="278.860753" style="fill: #9467bd; stroke: #ffffff; stroke-width: 0.75"/>
     <use xlink:href="#mbfa76734dc" x="312.915447" y="274.164847" style="fill: #9467bd; stroke: #ffffff; stroke-width: 0.75"/>
     <use xlink:href="#mbfa76734dc" x="318.047612" y="273.966396" style="fill: #9467bd; stroke: #ffffff; stroke-width: 0.75"/>
     <use xlink:href="#mbfa76734dc" x="322.902224" y="272.117419" style="fill: #9467bd; stroke: #ffffff; stroke-width: 0.75"/>
     <use xlink:href="#mbfa76734dc" x="327.507769" y="272.117419" style="fill: #9467bd; stroke: #ffffff; stroke-width: 0.75"/>
     <use xlink:href="#mbfa76734dc" x="331.888562" y="272.117419" style="fill: #9467bd; stroke: #ffffff; stroke-width: 0.75"/>
     <use xlink:href="#mbfa76734dc" x="336.065522" y="259.70899" style="fill: #9467bd; stroke: #ffffff; stroke-width: 0.75"/>
     <use xlink:href="#mbfa76734dc" x="340.056776" y="259.385509" style="fill: #9467bd; stroke: #ffffff; stroke-width: 0.75"/>
     <use xlink:href="#mbfa76734dc" x="343.878138" y="258.948228" style="fill: #9467bd; stroke: #ffffff; stroke-width: 0.75"/>
     <use xlink:href="#mbfa76734dc" x="363.91385" y="250.308897" style="fill: #9467bd; stroke: #ffffff; stroke-width: 0.75"/>
     <use xlink:href="#mbfa76734dc" x="377.7548" y="244.786214" style="fill: #9467bd; stroke: #ffffff; stroke-width: 0.75"/>
     <use xlink:href="#mbfa76734dc" x="380.28422" y="241.880787" style="fill: #9467bd; stroke: #ffffff; stroke-width: 0.75"/>
     <use xlink:href="#mbfa76734dc" x="394.125169" y="238.277374" style="fill: #9467bd; stroke: #ffffff; stroke-width: 0.75"/>
     <use xlink:href="#mbfa76734dc" x="398.302129" y="233.97316" style="fill: #9467bd; stroke: #ffffff; stroke-width: 0.75"/>
     <use xlink:href="#mbfa76734dc" x="402.293384" y="233.523724" style="fill: #9467bd; stroke: #ffffff; stroke-width: 0.75"/>
     <use xlink:href="#mbfa76734dc" x="416.690301" y="229.54616" style="fill: #9467bd; stroke: #ffffff; stroke-width: 0.75"/>
     <use xlink:href="#mbfa76734dc" x="418.337842" y="228.308266" style="fill: #9467bd; stroke: #ffffff; stroke-width: 0.75"/>
     <use xlink:href="#mbfa76734dc" x="419.955696" y="226.126722" style="fill: #9467bd; stroke: #ffffff; stroke-width: 0.75"/>
     <use xlink:href="#mbfa76734dc" x="426.150458" y="224.920444" style="fill: #9467bd; stroke: #ffffff; stroke-width: 0.75"/>
     <use xlink:href="#mbfa76734dc" x="436.058439" y="222.149158" style="fill: #9467bd; stroke: #ffffff; stroke-width: 0.75"/>
     <use xlink:href="#mbfa76734dc" x="441.265024" y="222.149158" style="fill: #9467bd; stroke: #ffffff; stroke-width: 0.75"/>
     <use xlink:href="#mbfa76734dc" x="442.520827" y="220.66826" style="fill: #9467bd; stroke: #ffffff; stroke-width: 0.75"/>
     <use xlink:href="#mbfa76734dc" x="450.851555" y="220.66826" style="fill: #9467bd; stroke: #ffffff; stroke-width: 0.75"/>
     <use xlink:href="#mbfa76734dc" x="454.198096" y="219.461983" style="fill: #9467bd; stroke: #ffffff; stroke-width: 0.75"/>
     <use xlink:href="#mbfa76734dc" x="455.286454" y="219.461983" style="fill: #9467bd; stroke: #ffffff; stroke-width: 0.75"/>
     <use xlink:href="#mbfa76734dc" x="461.553307" y="218.870748" style="fill: #9467bd; stroke: #ffffff; stroke-width: 0.75"/>
     <use xlink:href="#mbfa76734dc" x="463.548688" y="218.870748" style="fill: #9467bd; stroke: #ffffff; stroke-width: 0.75"/>
     <use xlink:href="#mbfa76734dc" x="482.192303" y="214.06967" style="fill: #9467bd; stroke: #ffffff; stroke-width: 0.75"/>
     <use xlink:href="#mbfa76734dc" x="484.565704" y="213.638819" style="fill: #9467bd; stroke: #ffffff; stroke-width: 0.75"/>
     <use xlink:href="#mbfa76734dc" x="485.343098" y="211.48151" style="fill: #9467bd; stroke: #ffffff; stroke-width: 0.75"/>
     <use xlink:href="#mbfa76734dc" x="500.936074" y="208.400853" style="fill: #9467bd; stroke: #ffffff; stroke-width: 0.75"/>
     <use xlink:href="#mbfa76734dc" x="501.584368" y="207.054343" style="fill: #9467bd; stroke: #ffffff; stroke-width: 0.75"/>
     <use xlink:href="#mbfa76734dc" x="502.228016" y="205.188622" style="fill: #9467bd; stroke: #ffffff; stroke-width: 0.75"/>
     <use xlink:href="#mbfa76734dc" x="517.523061" y="199.710894" style="fill: #9467bd; stroke: #ffffff; stroke-width: 0.75"/>
     <use xlink:href="#mbfa76734dc" x="518.062333" y="199.710894" style="fill: #9467bd; stroke: #ffffff; stroke-width: 0.75"/>
     <use xlink:href="#mbfa76734dc" x="523.789914" y="199.082815" style="fill: #9467bd; stroke: #ffffff; stroke-width: 0.75"/>
     <use xlink:href="#mbfa76734dc" x="527.253259" y="198.169079" style="fill: #9467bd; stroke: #ffffff; stroke-width: 0.75"/>
     <use xlink:href="#mbfa76734dc" x="532.896275" y="197.541" style="fill: #9467bd; stroke: #ffffff; stroke-width: 0.75"/>
     <use xlink:href="#mbfa76734dc" x="533.350901" y="197.541" style="fill: #9467bd; stroke: #ffffff; stroke-width: 0.75"/>
     <use xlink:href="#mbfa76734dc" x="536.031352" y="197.541" style="fill: #9467bd; stroke: #ffffff; stroke-width: 0.75"/>
     <use xlink:href="#mbfa76734dc" x="541.991066" y="197.541" style="fill: #9467bd; stroke: #ffffff; stroke-width: 0.75"/>
     <use xlink:href="#mbfa76734dc" x="544.027172" y="197.541" style="fill: #9467bd; stroke: #ffffff; stroke-width: 0.75"/>
     <use xlink:href="#mbfa76734dc" x="544.82886" y="197.541" style="fill: #9467bd; stroke: #ffffff; stroke-width: 0.75"/>
     <use xlink:href="#mbfa76734dc" x="557.117234" y="197.541" style="fill: #9467bd; stroke: #ffffff; stroke-width: 0.75"/>
     <use xlink:href="#mbfa76734dc" x="558.498622" y="197.541" style="fill: #9467bd; stroke: #ffffff; stroke-width: 0.75"/>
     <use xlink:href="#mbfa76734dc" x="560.195996" y="197.541" style="fill: #9467bd; stroke: #ffffff; stroke-width: 0.75"/>
     <use xlink:href="#mbfa76734dc" x="565.10369" y="197.541" style="fill: #9467bd; stroke: #ffffff; stroke-width: 0.75"/>
     <use xlink:href="#mbfa76734dc" x="571.25599" y="197.541" style="fill: #9467bd; stroke: #ffffff; stroke-width: 0.75"/>
    </g>
   </g>
   <g id="line2d_60"/>
   <g id="LineCollection_7">
    <path d="M 120.762233 468.430284 
L 120.762233 468.430284 
" clip-path="url(#p5555e61825)" style="fill: none; stroke: #9467bd; stroke-width: 2; stroke-linecap: square"/>
    <path d="M 157.168315 427.252924 
L 157.168315 427.252924 
" clip-path="url(#p5555e61825)" style="fill: none; stroke: #9467bd; stroke-width: 2; stroke-linecap: square"/>
    <path d="M 182.998841 376.980411 
L 182.998841 376.980411 
" clip-path="url(#p5555e61825)" style="fill: none; stroke: #9467bd; stroke-width: 2; stroke-linecap: square"/>
    <path d="M 219.404922 347.345193 
L 219.404922 347.345193 
" clip-path="url(#p5555e61825)" style="fill: none; stroke: #9467bd; stroke-width: 2; stroke-linecap: square"/>
    <path d="M 233.245872 347.345193 
L 233.245872 347.345193 
" clip-path="url(#p5555e61825)" style="fill: none; stroke: #9467bd; stroke-width: 2; stroke-linecap: square"/>
    <path d="M 245.235448 315.407723 
L 245.235448 315.407723 
" clip-path="url(#p5555e61825)" style="fill: none; stroke: #9467bd; stroke-width: 2; stroke-linecap: square"/>
    <path d="M 273.828914 300.755987 
L 273.828914 300.755987 
" clip-path="url(#p5555e61825)" style="fill: none; stroke: #9467bd; stroke-width: 2; stroke-linecap: square"/>
    <path d="M 281.64153 296.145137 
L 281.64153 296.145137 
" clip-path="url(#p5555e61825)" style="fill: none; stroke: #9467bd; stroke-width: 2; stroke-linecap: square"/>
    <path d="M 295.48248 288.081734 
L 295.48248 288.081734 
" clip-path="url(#p5555e61825)" style="fill: none; stroke: #9467bd; stroke-width: 2; stroke-linecap: square"/>
    <path d="M 301.677243 278.861554 
L 301.677243 278.861554 
" clip-path="url(#p5555e61825)" style="fill: none; stroke: #9467bd; stroke-width: 2; stroke-linecap: square"/>
    <path d="M 307.472056 278.860753 
L 307.472056 278.860753 
" clip-path="url(#p5555e61825)" style="fill: none; stroke: #9467bd; stroke-width: 2; stroke-linecap: square"/>
    <path d="M 312.915447 274.164847 
L 312.915447 274.164847 
" clip-path="url(#p5555e61825)" style="fill: none; stroke: #9467bd; stroke-width: 2; stroke-linecap: square"/>
    <path d="M 318.047612 273.966396 
L 318.047612 273.966396 
" clip-path="url(#p5555e61825)" style="fill: none; stroke: #9467bd; stroke-width: 2; stroke-linecap: square"/>
    <path d="M 322.902224 272.117419 
L 322.902224 272.117419 
" clip-path="url(#p5555e61825)" style="fill: none; stroke: #9467bd; stroke-width: 2; stroke-linecap: square"/>
    <path d="M 327.507769 272.117419 
L 327.507769 272.117419 
" clip-path="url(#p5555e61825)" style="fill: none; stroke: #9467bd; stroke-width: 2; stroke-linecap: square"/>
    <path d="M 331.888562 272.117419 
L 331.888562 272.117419 
" clip-path="url(#p5555e61825)" style="fill: none; stroke: #9467bd; stroke-width: 2; stroke-linecap: square"/>
    <path d="M 336.065522 259.70899 
L 336.065522 259.70899 
" clip-path="url(#p5555e61825)" style="fill: none; stroke: #9467bd; stroke-width: 2; stroke-linecap: square"/>
    <path d="M 340.056776 259.385509 
L 340.056776 259.385509 
" clip-path="url(#p5555e61825)" style="fill: none; stroke: #9467bd; stroke-width: 2; stroke-linecap: square"/>
    <path d="M 343.878138 258.948228 
L 343.878138 258.948228 
" clip-path="url(#p5555e61825)" style="fill: none; stroke: #9467bd; stroke-width: 2; stroke-linecap: square"/>
    <path d="M 363.91385 250.308897 
L 363.91385 250.308897 
" clip-path="url(#p5555e61825)" style="fill: none; stroke: #9467bd; stroke-width: 2; stroke-linecap: square"/>
    <path d="M 377.7548 244.786214 
L 377.7548 244.786214 
" clip-path="url(#p5555e61825)" style="fill: none; stroke: #9467bd; stroke-width: 2; stroke-linecap: square"/>
    <path d="M 380.28422 241.880787 
L 380.28422 241.880787 
" clip-path="url(#p5555e61825)" style="fill: none; stroke: #9467bd; stroke-width: 2; stroke-linecap: square"/>
    <path d="M 394.125169 238.277374 
L 394.125169 238.277374 
" clip-path="url(#p5555e61825)" style="fill: none; stroke: #9467bd; stroke-width: 2; stroke-linecap: square"/>
    <path d="M 398.302129 233.97316 
L 398.302129 233.97316 
" clip-path="url(#p5555e61825)" style="fill: none; stroke: #9467bd; stroke-width: 2; stroke-linecap: square"/>
    <path d="M 402.293384 233.523724 
L 402.293384 233.523724 
" clip-path="url(#p5555e61825)" style="fill: none; stroke: #9467bd; stroke-width: 2; stroke-linecap: square"/>
    <path d="M 416.690301 229.54616 
L 416.690301 229.54616 
" clip-path="url(#p5555e61825)" style="fill: none; stroke: #9467bd; stroke-width: 2; stroke-linecap: square"/>
    <path d="M 418.337842 228.308266 
L 418.337842 228.308266 
" clip-path="url(#p5555e61825)" style="fill: none; stroke: #9467bd; stroke-width: 2; stroke-linecap: square"/>
    <path d="M 419.955696 226.126722 
L 419.955696 226.126722 
" clip-path="url(#p5555e61825)" style="fill: none; stroke: #9467bd; stroke-width: 2; stroke-linecap: square"/>
    <path d="M 426.150458 224.920444 
L 426.150458 224.920444 
" clip-path="url(#p5555e61825)" style="fill: none; stroke: #9467bd; stroke-width: 2; stroke-linecap: square"/>
    <path d="M 436.058439 222.149158 
L 436.058439 222.149158 
" clip-path="url(#p5555e61825)" style="fill: none; stroke: #9467bd; stroke-width: 2; stroke-linecap: square"/>
    <path d="M 441.265024 222.149158 
L 441.265024 222.149158 
" clip-path="url(#p5555e61825)" style="fill: none; stroke: #9467bd; stroke-width: 2; stroke-linecap: square"/>
    <path d="M 442.520827 220.66826 
L 442.520827 220.66826 
" clip-path="url(#p5555e61825)" style="fill: none; stroke: #9467bd; stroke-width: 2; stroke-linecap: square"/>
    <path d="M 450.851555 220.66826 
L 450.851555 220.66826 
" clip-path="url(#p5555e61825)" style="fill: none; stroke: #9467bd; stroke-width: 2; stroke-linecap: square"/>
    <path d="M 454.198096 219.461983 
L 454.198096 219.461983 
" clip-path="url(#p5555e61825)" style="fill: none; stroke: #9467bd; stroke-width: 2; stroke-linecap: square"/>
    <path d="M 455.286454 219.461983 
L 455.286454 219.461983 
" clip-path="url(#p5555e61825)" style="fill: none; stroke: #9467bd; stroke-width: 2; stroke-linecap: square"/>
    <path d="M 461.553307 218.870748 
L 461.553307 218.870748 
" clip-path="url(#p5555e61825)" style="fill: none; stroke: #9467bd; stroke-width: 2; stroke-linecap: square"/>
    <path d="M 463.548688 218.870748 
L 463.548688 218.870748 
" clip-path="url(#p5555e61825)" style="fill: none; stroke: #9467bd; stroke-width: 2; stroke-linecap: square"/>
    <path d="M 482.192303 214.06967 
L 482.192303 214.06967 
" clip-path="url(#p5555e61825)" style="fill: none; stroke: #9467bd; stroke-width: 2; stroke-linecap: square"/>
    <path d="M 484.565704 213.638819 
L 484.565704 213.638819 
" clip-path="url(#p5555e61825)" style="fill: none; stroke: #9467bd; stroke-width: 2; stroke-linecap: square"/>
    <path d="M 485.343098 211.48151 
L 485.343098 211.48151 
" clip-path="url(#p5555e61825)" style="fill: none; stroke: #9467bd; stroke-width: 2; stroke-linecap: square"/>
    <path d="M 500.936074 208.400853 
L 500.936074 208.400853 
" clip-path="url(#p5555e61825)" style="fill: none; stroke: #9467bd; stroke-width: 2; stroke-linecap: square"/>
    <path d="M 501.584368 207.054343 
L 501.584368 207.054343 
" clip-path="url(#p5555e61825)" style="fill: none; stroke: #9467bd; stroke-width: 2; stroke-linecap: square"/>
    <path d="M 502.228016 205.188622 
L 502.228016 205.188622 
" clip-path="url(#p5555e61825)" style="fill: none; stroke: #9467bd; stroke-width: 2; stroke-linecap: square"/>
    <path d="M 517.523061 199.710894 
L 517.523061 199.710894 
" clip-path="url(#p5555e61825)" style="fill: none; stroke: #9467bd; stroke-width: 2; stroke-linecap: square"/>
    <path d="M 518.062333 199.710894 
L 518.062333 199.710894 
" clip-path="url(#p5555e61825)" style="fill: none; stroke: #9467bd; stroke-width: 2; stroke-linecap: square"/>
    <path d="M 523.789914 199.082815 
L 523.789914 199.082815 
" clip-path="url(#p5555e61825)" style="fill: none; stroke: #9467bd; stroke-width: 2; stroke-linecap: square"/>
    <path d="M 527.253259 198.169079 
L 527.253259 198.169079 
" clip-path="url(#p5555e61825)" style="fill: none; stroke: #9467bd; stroke-width: 2; stroke-linecap: square"/>
    <path d="M 532.896275 197.541 
L 532.896275 197.541 
" clip-path="url(#p5555e61825)" style="fill: none; stroke: #9467bd; stroke-width: 2; stroke-linecap: square"/>
    <path d="M 533.350901 197.541 
L 533.350901 197.541 
" clip-path="url(#p5555e61825)" style="fill: none; stroke: #9467bd; stroke-width: 2; stroke-linecap: square"/>
    <path d="M 536.031352 197.541 
L 536.031352 197.541 
" clip-path="url(#p5555e61825)" style="fill: none; stroke: #9467bd; stroke-width: 2; stroke-linecap: square"/>
    <path d="M 541.991066 197.541 
L 541.991066 197.541 
" clip-path="url(#p5555e61825)" style="fill: none; stroke: #9467bd; stroke-width: 2; stroke-linecap: square"/>
    <path d="M 544.027172 197.541 
L 544.027172 197.541 
" clip-path="url(#p5555e61825)" style="fill: none; stroke: #9467bd; stroke-width: 2; stroke-linecap: square"/>
    <path d="M 544.82886 197.541 
L 544.82886 197.541 
" clip-path="url(#p5555e61825)" style="fill: none; stroke: #9467bd; stroke-width: 2; stroke-linecap: square"/>
    <path d="M 557.117234 197.541 
L 557.117234 197.541 
" clip-path="url(#p5555e61825)" style="fill: none; stroke: #9467bd; stroke-width: 2; stroke-linecap: square"/>
    <path d="M 558.498622 197.541 
L 558.498622 197.541 
" clip-path="url(#p5555e61825)" style="fill: none; stroke: #9467bd; stroke-width: 2; stroke-linecap: square"/>
    <path d="M 560.195996 197.541 
L 560.195996 197.541 
" clip-path="url(#p5555e61825)" style="fill: none; stroke: #9467bd; stroke-width: 2; stroke-linecap: square"/>
    <path d="M 565.10369 197.541 
L 565.10369 197.541 
" clip-path="url(#p5555e61825)" style="fill: none; stroke: #9467bd; stroke-width: 2; stroke-linecap: square"/>
    <path d="M 571.25599 197.541 
L 571.25599 197.541 
" clip-path="url(#p5555e61825)" style="fill: none; stroke: #9467bd; stroke-width: 2; stroke-linecap: square"/>
   </g>
   <g id="line2d_61"/>
   <g id="line2d_62"/>
   <g id="line2d_63"/>
   <g id="line2d_64"/>
   <g id="line2d_65"/>
   <g id="line2d_66"/>
   <g id="line2d_67"/>
   <g id="patch_3">
    <path d="M 58.525625 620.901 
L 58.525625 177.381 
" style="fill: none; stroke: #000000; stroke-width: 0.8; stroke-linejoin: miter; stroke-linecap: square"/>
   </g>
   <g id="patch_4">
    <path d="M 616.525625 620.901 
L 616.525625 177.381 
" style="fill: none; stroke: #000000; stroke-width: 0.8; stroke-linejoin: miter; stroke-linecap: square"/>
   </g>
   <g id="patch_5">
    <path d="M 58.525625 620.901 
L 616.525625 620.901 
" style="fill: none; stroke: #000000; stroke-width: 0.8; stroke-linejoin: miter; stroke-linecap: square"/>
   </g>
   <g id="patch_6">
    <path d="M 58.525625 177.381 
L 616.525625 177.381 
" style="fill: none; stroke: #000000; stroke-width: 0.8; stroke-linejoin: miter; stroke-linecap: square"/>
   </g>
   <g id="legend_1">
    <g id="patch_7">
     <path d="M 70.595469 146.205 
L 604.455781 146.205 
Q 608.055781 146.205 608.055781 142.605 
L 608.055781 10.8 
Q 608.055781 7.2 604.455781 7.2 
L 70.595469 7.2 
Q 66.995469 7.2 66.995469 10.8 
L 66.995469 142.605 
Q 66.995469 146.205 70.595469 146.205 
z
" style="fill: #ffffff; opacity: 0.8; stroke: #cccccc; stroke-linejoin: miter"/>
    </g>
    <g id="line2d_68">
     <path d="M 74.195469 21.777187 
L 92.195469 21.777187 
L 110.195469 21.777187 
" style="fill: none; stroke-dasharray: 7.4,3.2; stroke-dashoffset: 0; stroke: #1f77b4; stroke-width: 2"/>
    </g>
    <g id="text_15">
     <!-- Full Codebook -->
     <g transform="translate(124.595469 28.077187) scale(0.18 -0.18)">
      <defs>
       <path id="DejaVuSans-46" d="M 628 4666 
L 3309 4666 
L 3309 4134 
L 1259 4134 
L 1259 2759 
L 3109 2759 
L 3109 2228 
L 1259 2228 
L 1259 0 
L 628 0 
L 628 4666 
z
" transform="scale(0.015625)"/>
       <path id="DejaVuSans-43" d="M 4122 4306 
L 4122 3641 
Q 3803 3938 3442 4084 
Q 3081 4231 2675 4231 
Q 1875 4231 1450 3742 
Q 1025 3253 1025 2328 
Q 1025 1406 1450 917 
Q 1875 428 2675 428 
Q 3081 428 3442 575 
Q 3803 722 4122 1019 
L 4122 359 
Q 3791 134 3420 21 
Q 3050 -91 2638 -91 
Q 1578 -91 968 557 
Q 359 1206 359 2328 
Q 359 3453 968 4101 
Q 1578 4750 2638 4750 
Q 3056 4750 3426 4639 
Q 3797 4528 4122 4306 
z
" transform="scale(0.015625)"/>
       <path id="DejaVuSans-64" d="M 2906 2969 
L 2906 4863 
L 3481 4863 
L 3481 0 
L 2906 0 
L 2906 525 
Q 2725 213 2448 61 
Q 2172 -91 1784 -91 
Q 1150 -91 751 415 
Q 353 922 353 1747 
Q 353 2572 751 3078 
Q 1150 3584 1784 3584 
Q 2172 3584 2448 3432 
Q 2725 3281 2906 2969 
z
M 947 1747 
Q 947 1113 1208 752 
Q 1469 391 1925 391 
Q 2381 391 2643 752 
Q 2906 1113 2906 1747 
Q 2906 2381 2643 2742 
Q 2381 3103 1925 3103 
Q 1469 3103 1208 2742 
Q 947 2381 947 1747 
z
" transform="scale(0.015625)"/>
       <path id="DejaVuSans-6b" d="M 581 4863 
L 1159 4863 
L 1159 1991 
L 2875 3500 
L 3609 3500 
L 1753 1863 
L 3688 0 
L 2938 0 
L 1159 1709 
L 1159 0 
L 581 0 
L 581 4863 
z
" transform="scale(0.015625)"/>
      </defs>
      <use xlink:href="#DejaVuSans-46"/>
      <use xlink:href="#DejaVuSans-75" transform="translate(52.019531 0)"/>
      <use xlink:href="#DejaVuSans-6c" transform="translate(115.398438 0)"/>
      <use xlink:href="#DejaVuSans-6c" transform="translate(143.181641 0)"/>
      <use xlink:href="#DejaVuSans-20" transform="translate(170.964844 0)"/>
      <use xlink:href="#DejaVuSans-43" transform="translate(202.751953 0)"/>
      <use xlink:href="#DejaVuSans-6f" transform="translate(272.576172 0)"/>
      <use xlink:href="#DejaVuSans-64" transform="translate(333.757812 0)"/>
      <use xlink:href="#DejaVuSans-65" transform="translate(397.234375 0)"/>
      <use xlink:href="#DejaVuSans-62" transform="translate(458.757812 0)"/>
      <use xlink:href="#DejaVuSans-6f" transform="translate(522.234375 0)"/>
      <use xlink:href="#DejaVuSans-6f" transform="translate(583.416016 0)"/>
      <use xlink:href="#DejaVuSans-6b" transform="translate(644.597656 0)"/>
     </g>
    </g>
    <g id="line2d_69">
     <path d="M 74.195469 48.197812 
L 92.195469 48.197812 
L 110.195469 48.197812 
" style="fill: none; stroke-dasharray: 7.4,3.2; stroke-dashoffset: 0; stroke: #aec7e8; stroke-width: 2"/>
    </g>
    <g id="text_16">
     <!-- Mean bitrate with RIS -->
     <g transform="translate(124.595469 54.497812) scale(0.18 -0.18)">
      <defs>
       <path id="DejaVuSans-4d" d="M 628 4666 
L 1569 4666 
L 2759 1491 
L 3956 4666 
L 4897 4666 
L 4897 0 
L 4281 0 
L 4281 4097 
L 3078 897 
L 2444 897 
L 1241 4097 
L 1241 0 
L 628 0 
L 628 4666 
z
" transform="scale(0.015625)"/>
       <path id="DejaVuSans-77" d="M 269 3500 
L 844 3500 
L 1563 769 
L 2278 3500 
L 2956 3500 
L 3675 769 
L 4391 3500 
L 4966 3500 
L 4050 0 
L 3372 0 
L 2619 2869 
L 1863 0 
L 1184 0 
L 269 3500 
z
" transform="scale(0.015625)"/>
       <path id="DejaVuSans-68" d="M 3513 2113 
L 3513 0 
L 2938 0 
L 2938 2094 
Q 2938 2591 2744 2837 
Q 2550 3084 2163 3084 
Q 1697 3084 1428 2787 
Q 1159 2491 1159 1978 
L 1159 0 
L 581 0 
L 581 4863 
L 1159 4863 
L 1159 2956 
Q 1366 3272 1645 3428 
Q 1925 3584 2291 3584 
Q 2894 3584 3203 3211 
Q 3513 2838 3513 2113 
z
" transform="scale(0.015625)"/>
       <path id="DejaVuSans-52" d="M 2841 2188 
Q 3044 2119 3236 1894 
Q 3428 1669 3622 1275 
L 4263 0 
L 3584 0 
L 2988 1197 
Q 2756 1666 2539 1819 
Q 2322 1972 1947 1972 
L 1259 1972 
L 1259 0 
L 628 0 
L 628 4666 
L 2053 4666 
Q 2853 4666 3247 4331 
Q 3641 3997 3641 3322 
Q 3641 2881 3436 2590 
Q 3231 2300 2841 2188 
z
M 1259 4147 
L 1259 2491 
L 2053 2491 
Q 2509 2491 2742 2702 
Q 2975 2913 2975 3322 
Q 2975 3731 2742 3939 
Q 2509 4147 2053 4147 
L 1259 4147 
z
" transform="scale(0.015625)"/>
       <path id="DejaVuSans-49" d="M 628 4666 
L 1259 4666 
L 1259 0 
L 628 0 
L 628 4666 
z
" transform="scale(0.015625)"/>
       <path id="DejaVuSans-53" d="M 3425 4513 
L 3425 3897 
Q 3066 4069 2747 4153 
Q 2428 4238 2131 4238 
Q 1616 4238 1336 4038 
Q 1056 3838 1056 3469 
Q 1056 3159 1242 3001 
Q 1428 2844 1947 2747 
L 2328 2669 
Q 3034 2534 3370 2195 
Q 3706 1856 3706 1288 
Q 3706 609 3251 259 
Q 2797 -91 1919 -91 
Q 1588 -91 1214 -16 
Q 841 59 441 206 
L 441 856 
Q 825 641 1194 531 
Q 1563 422 1919 422 
Q 2459 422 2753 634 
Q 3047 847 3047 1241 
Q 3047 1584 2836 1778 
Q 2625 1972 2144 2069 
L 1759 2144 
Q 1053 2284 737 2584 
Q 422 2884 422 3419 
Q 422 4038 858 4394 
Q 1294 4750 2059 4750 
Q 2388 4750 2728 4690 
Q 3069 4631 3425 4513 
z
" transform="scale(0.015625)"/>
      </defs>
      <use xlink:href="#DejaVuSans-4d"/>
      <use xlink:href="#DejaVuSans-65" transform="translate(86.279297 0)"/>
      <use xlink:href="#DejaVuSans-61" transform="translate(147.802734 0)"/>
      <use xlink:href="#DejaVuSans-6e" transform="translate(209.082031 0)"/>
      <use xlink:href="#DejaVuSans-20" transform="translate(272.460938 0)"/>
      <use xlink:href="#DejaVuSans-62" transform="translate(304.248047 0)"/>
      <use xlink:href="#DejaVuSans-69" transform="translate(367.724609 0)"/>
      <use xlink:href="#DejaVuSans-74" transform="translate(395.507812 0)"/>
      <use xlink:href="#DejaVuSans-72" transform="translate(434.716797 0)"/>
      <use xlink:href="#DejaVuSans-61" transform="translate(475.830078 0)"/>
      <use xlink:href="#DejaVuSans-74" transform="translate(537.109375 0)"/>
      <use xlink:href="#DejaVuSans-65" transform="translate(576.318359 0)"/>
      <use xlink:href="#DejaVuSans-20" transform="translate(637.841797 0)"/>
      <use xlink:href="#DejaVuSans-77" transform="translate(669.628906 0)"/>
      <use xlink:href="#DejaVuSans-69" transform="translate(751.416016 0)"/>
      <use xlink:href="#DejaVuSans-74" transform="translate(779.199219 0)"/>
      <use xlink:href="#DejaVuSans-68" transform="translate(818.408203 0)"/>
      <use xlink:href="#DejaVuSans-20" transform="translate(881.787109 0)"/>
      <use xlink:href="#DejaVuSans-52" transform="translate(913.574219 0)"/>
      <use xlink:href="#DejaVuSans-49" transform="translate(983.056641 0)"/>
      <use xlink:href="#DejaVuSans-53" transform="translate(1012.548828 0)"/>
     </g>
    </g>
    <g id="line2d_70">
     <g>
      <use xlink:href="#m3566fbe42f" x="92.195469" y="74.618437" style="fill: #ff7f0e; stroke: #ffffff; stroke-width: 0.75"/>
     </g>
    </g>
    <g id="text_17">
     <!-- Greedy s_step1 -->
     <g transform="translate(124.595469 80.918437) scale(0.18 -0.18)">
      <defs>
       <path id="DejaVuSans-47" d="M 3809 666 
L 3809 1919 
L 2778 1919 
L 2778 2438 
L 4434 2438 
L 4434 434 
Q 4069 175 3628 42 
Q 3188 -91 2688 -91 
Q 1594 -91 976 548 
Q 359 1188 359 2328 
Q 359 3472 976 4111 
Q 1594 4750 2688 4750 
Q 3144 4750 3555 4637 
Q 3966 4525 4313 4306 
L 4313 3634 
Q 3963 3931 3569 4081 
Q 3175 4231 2741 4231 
Q 1884 4231 1454 3753 
Q 1025 3275 1025 2328 
Q 1025 1384 1454 906 
Q 1884 428 2741 428 
Q 3075 428 3337 486 
Q 3600 544 3809 666 
z
" transform="scale(0.015625)"/>
       <path id="DejaVuSans-3d5" d="M 2388 4863 
L 2388 3572 
Q 3009 3572 3425 3094 
Q 3853 2606 3853 1747 
Q 3853 888 3425 400 
Q 3009 -78 2388 -78 
L 2388 -1331 
L 1816 -1331 
L 1816 -78 
Q 1194 -78 775 400 
Q 350 888 350 1747 
Q 350 2606 775 3094 
Q 1194 3572 1816 3572 
L 1816 4863 
L 2388 4863 
z
M 2388 434 
Q 2741 434 2981 756 
Q 3244 1116 3247 1747 
Q 3250 2372 2981 2738 
Q 2741 3059 2388 3059 
L 2388 434 
z
M 1816 434 
L 1816 3059 
Q 1463 3059 1225 2738 
Q 953 2372 956 1747 
Q 959 1116 1225 756 
Q 1463 434 1816 434 
z
" transform="scale(0.015625)"/>
       <path id="DejaVuSans-5f" d="M 3263 -1063 
L 3263 -1509 
L -63 -1509 
L -63 -1063 
L 3263 -1063 
z
" transform="scale(0.015625)"/>
       <path id="DejaVuSans-b0" d="M 1600 4347 
Q 1350 4347 1178 4173 
Q 1006 4000 1006 3750 
Q 1006 3503 1178 3333 
Q 1350 3163 1600 3163 
Q 1850 3163 2022 3333 
Q 2194 3503 2194 3750 
Q 2194 3997 2020 4172 
Q 1847 4347 1600 4347 
z
M 1600 4750 
Q 1800 4750 1984 4673 
Q 2169 4597 2303 4453 
Q 2447 4313 2519 4134 
Q 2591 3956 2591 3750 
Q 2591 3338 2302 3052 
Q 2013 2766 1594 2766 
Q 1172 2766 890 3047 
Q 609 3328 609 3750 
Q 609 4169 896 4459 
Q 1184 4750 1600 4750 
z
" transform="scale(0.015625)"/>
      </defs>
      <use xlink:href="#DejaVuSans-47"/>
      <use xlink:href="#DejaVuSans-72" transform="translate(77.490234 0)"/>
      <use xlink:href="#DejaVuSans-65" transform="translate(116.353516 0)"/>
      <use xlink:href="#DejaVuSans-65" transform="translate(177.876953 0)"/>
      <use xlink:href="#DejaVuSans-64" transform="translate(239.400391 0)"/>
      <use xlink:href="#DejaVuSans-79" transform="translate(302.876953 0)"/>
      <use xlink:href="#DejaVuSans-20" transform="translate(362.056641 0)"/>
      <use xlink:href="#DejaVuSans-3d5" transform="translate(393.84375 0)"/>
      <use xlink:href="#DejaVuSans-73" transform="translate(459.810547 0)"/>
      <use xlink:href="#DejaVuSans-5f" transform="translate(511.910156 0)"/>
      <use xlink:href="#DejaVuSans-73" transform="translate(561.910156 0)"/>
      <use xlink:href="#DejaVuSans-74" transform="translate(614.009766 0)"/>
      <use xlink:href="#DejaVuSans-65" transform="translate(653.21875 0)"/>
      <use xlink:href="#DejaVuSans-70" transform="translate(714.742188 0)"/>
      <use xlink:href="#DejaVuSans-31" transform="translate(778.21875 0)"/>
      <use xlink:href="#DejaVuSans-b0" transform="translate(841.841797 0)"/>
     </g>
    </g>
    <g id="line2d_71">
     <g>
      <use xlink:href="#m46d94abcac" x="92.195469" y="101.539687" style="fill: #ffbb78; stroke: #ffffff; stroke-width: 0.75"/>
     </g>
    </g>
    <g id="text_18">
     <!-- Greedy s_step30 -->
     <g transform="translate(124.595469 107.839687) scale(0.18 -0.18)">
      <use xlink:href="#DejaVuSans-47"/>
      <use xlink:href="#DejaVuSans-72" transform="translate(77.490234 0)"/>
      <use xlink:href="#DejaVuSans-65" transform="translate(116.353516 0)"/>
      <use xlink:href="#DejaVuSans-65" transform="translate(177.876953 0)"/>
      <use xlink:href="#DejaVuSans-64" transform="translate(239.400391 0)"/>
      <use xlink:href="#DejaVuSans-79" transform="translate(302.876953 0)"/>
      <use xlink:href="#DejaVuSans-20" transform="translate(362.056641 0)"/>
      <use xlink:href="#DejaVuSans-3d5" transform="translate(393.84375 0)"/>
      <use xlink:href="#DejaVuSans-73" transform="translate(459.810547 0)"/>
      <use xlink:href="#DejaVuSans-5f" transform="translate(511.910156 0)"/>
      <use xlink:href="#DejaVuSans-73" transform="translate(561.910156 0)"/>
      <use xlink:href="#DejaVuSans-74" transform="translate(614.009766 0)"/>
      <use xlink:href="#DejaVuSans-65" transform="translate(653.21875 0)"/>
      <use xlink:href="#DejaVuSans-70" transform="translate(714.742188 0)"/>
      <use xlink:href="#DejaVuSans-33" transform="translate(778.21875 0)"/>
      <use xlink:href="#DejaVuSans-30" transform="translate(841.841797 0)"/>
      <use xlink:href="#DejaVuSans-b0" transform="translate(905.464844 0)"/>
     </g>
    </g>
    <g id="line2d_72">
     <g>
      <use xlink:href="#me8bc56eff3" x="92.195469" y="128.460937" style="fill: #2ca02c; stroke: #ffffff; stroke-width: 0.75"/>
     </g>
    </g>
    <g id="text_19">
     <!-- Greedy s_step45 -->
     <g transform="translate(124.595469 134.760937) scale(0.18 -0.18)">
      <defs>
       <path id="DejaVuSans-35" d="M 691 4666 
L 3169 4666 
L 3169 4134 
L 1269 4134 
L 1269 2991 
Q 1406 3038 1543 3061 
Q 1681 3084 1819 3084 
Q 2600 3084 3056 2656 
Q 3513 2228 3513 1497 
Q 3513 744 3044 326 
Q 2575 -91 1722 -91 
Q 1428 -91 1123 -41 
Q 819 9 494 109 
L 494 744 
Q 775 591 1075 516 
Q 1375 441 1709 441 
Q 2250 441 2565 725 
Q 2881 1009 2881 1497 
Q 2881 1984 2565 2268 
Q 2250 2553 1709 2553 
Q 1456 2553 1204 2497 
Q 953 2441 691 2322 
L 691 4666 
z
" transform="scale(0.015625)"/>
      </defs>
      <use xlink:href="#DejaVuSans-47"/>
      <use xlink:href="#DejaVuSans-72" transform="translate(77.490234 0)"/>
      <use xlink:href="#DejaVuSans-65" transform="translate(116.353516 0)"/>
      <use xlink:href="#DejaVuSans-65" transform="translate(177.876953 0)"/>
      <use xlink:href="#DejaVuSans-64" transform="translate(239.400391 0)"/>
      <use xlink:href="#DejaVuSans-79" transform="translate(302.876953 0)"/>
      <use xlink:href="#DejaVuSans-20" transform="translate(362.056641 0)"/>
      <use xlink:href="#DejaVuSans-3d5" transform="translate(393.84375 0)"/>
      <use xlink:href="#DejaVuSans-73" transform="translate(459.810547 0)"/>
      <use xlink:href="#DejaVuSans-5f" transform="translate(511.910156 0)"/>
      <use xlink:href="#DejaVuSans-73" transform="translate(561.910156 0)"/>
      <use xlink:href="#DejaVuSans-74" transform="translate(614.009766 0)"/>
      <use xlink:href="#DejaVuSans-65" transform="translate(653.21875 0)"/>
      <use xlink:href="#DejaVuSans-70" transform="translate(714.742188 0)"/>
      <use xlink:href="#DejaVuSans-34" transform="translate(778.21875 0)"/>
      <use xlink:href="#DejaVuSans-35" transform="translate(841.841797 0)"/>
      <use xlink:href="#DejaVuSans-b0" transform="translate(905.464844 0)"/>
     </g>
    </g>
    <g id="line2d_73">
     <g>
      <use xlink:href="#m076e96b37c" x="372.278281" y="21.777187" style="fill: #98df8a; stroke: #ffffff; stroke-width: 0.75"/>
     </g>
    </g>
    <g id="text_20">
     <!-- Greedy s_step90 -->
     <g transform="translate(404.678281 28.077187) scale(0.18 -0.18)">
      <defs>
       <path id="DejaVuSans-39" d="M 703 97 
L 703 672 
Q 941 559 1184 500 
Q 1428 441 1663 441 
Q 2288 441 2617 861 
Q 2947 1281 2994 2138 
Q 2813 1869 2534 1725 
Q 2256 1581 1919 1581 
Q 1219 1581 811 2004 
Q 403 2428 403 3163 
Q 403 3881 828 4315 
Q 1253 4750 1959 4750 
Q 2769 4750 3195 4129 
Q 3622 3509 3622 2328 
Q 3622 1225 3098 567 
Q 2575 -91 1691 -91 
Q 1453 -91 1209 -44 
Q 966 3 703 97 
z
M 1959 2075 
Q 2384 2075 2632 2365 
Q 2881 2656 2881 3163 
Q 2881 3666 2632 3958 
Q 2384 4250 1959 4250 
Q 1534 4250 1286 3958 
Q 1038 3666 1038 3163 
Q 1038 2656 1286 2365 
Q 1534 2075 1959 2075 
z
" transform="scale(0.015625)"/>
      </defs>
      <use xlink:href="#DejaVuSans-47"/>
      <use xlink:href="#DejaVuSans-72" transform="translate(77.490234 0)"/>
      <use xlink:href="#DejaVuSans-65" transform="translate(116.353516 0)"/>
      <use xlink:href="#DejaVuSans-65" transform="translate(177.876953 0)"/>
      <use xlink:href="#DejaVuSans-64" transform="translate(239.400391 0)"/>
      <use xlink:href="#DejaVuSans-79" transform="translate(302.876953 0)"/>
      <use xlink:href="#DejaVuSans-20" transform="translate(362.056641 0)"/>
      <use xlink:href="#DejaVuSans-3d5" transform="translate(393.84375 0)"/>
      <use xlink:href="#DejaVuSans-73" transform="translate(459.810547 0)"/>
      <use xlink:href="#DejaVuSans-5f" transform="translate(511.910156 0)"/>
      <use xlink:href="#DejaVuSans-73" transform="translate(561.910156 0)"/>
      <use xlink:href="#DejaVuSans-74" transform="translate(614.009766 0)"/>
      <use xlink:href="#DejaVuSans-65" transform="translate(653.21875 0)"/>
      <use xlink:href="#DejaVuSans-70" transform="translate(714.742188 0)"/>
      <use xlink:href="#DejaVuSans-39" transform="translate(778.21875 0)"/>
      <use xlink:href="#DejaVuSans-30" transform="translate(841.841797 0)"/>
      <use xlink:href="#DejaVuSans-b0" transform="translate(905.464844 0)"/>
     </g>
    </g>
    <g id="line2d_74">
     <g>
      <use xlink:href="#mcfb750d33a" x="372.278281" y="48.698437" style="fill: #d62728; stroke: #ffffff; stroke-width: 0.75"/>
     </g>
    </g>
    <g id="text_21">
     <!-- Greedy s_step180 -->
     <g transform="translate(404.678281 54.998437) scale(0.18 -0.18)">
      <use xlink:href="#DejaVuSans-47"/>
      <use xlink:href="#DejaVuSans-72" transform="translate(77.490234 0)"/>
      <use xlink:href="#DejaVuSans-65" transform="translate(116.353516 0)"/>
      <use xlink:href="#DejaVuSans-65" transform="translate(177.876953 0)"/>
      <use xlink:href="#DejaVuSans-64" transform="translate(239.400391 0)"/>
      <use xlink:href="#DejaVuSans-79" transform="translate(302.876953 0)"/>
      <use xlink:href="#DejaVuSans-20" transform="translate(362.056641 0)"/>
      <use xlink:href="#DejaVuSans-3d5" transform="translate(393.84375 0)"/>
      <use xlink:href="#DejaVuSans-73" transform="translate(459.810547 0)"/>
      <use xlink:href="#DejaVuSans-5f" transform="translate(511.910156 0)"/>
      <use xlink:href="#DejaVuSans-73" transform="translate(561.910156 0)"/>
      <use xlink:href="#DejaVuSans-74" transform="translate(614.009766 0)"/>
      <use xlink:href="#DejaVuSans-65" transform="translate(653.21875 0)"/>
      <use xlink:href="#DejaVuSans-70" transform="translate(714.742188 0)"/>
      <use xlink:href="#DejaVuSans-31" transform="translate(778.21875 0)"/>
      <use xlink:href="#DejaVuSans-38" transform="translate(841.841797 0)"/>
      <use xlink:href="#DejaVuSans-30" transform="translate(905.464844 0)"/>
      <use xlink:href="#DejaVuSans-b0" transform="translate(969.087891 0)"/>
     </g>
    </g>
    <g id="line2d_75">
     <g>
      <use xlink:href="#med48a49b05" x="372.278281" y="75.619687" style="fill: #ff9896; stroke: #ffffff; stroke-width: 0.75"/>
     </g>
    </g>
    <g id="text_22">
     <!-- Greedy s_step360 -->
     <g transform="translate(404.678281 81.919687) scale(0.18 -0.18)">
      <use xlink:href="#DejaVuSans-47"/>
      <use xlink:href="#DejaVuSans-72" transform="translate(77.490234 0)"/>
      <use xlink:href="#DejaVuSans-65" transform="translate(116.353516 0)"/>
      <use xlink:href="#DejaVuSans-65" transform="translate(177.876953 0)"/>
      <use xlink:href="#DejaVuSans-64" transform="translate(239.400391 0)"/>
      <use xlink:href="#DejaVuSans-79" transform="translate(302.876953 0)"/>
      <use xlink:href="#DejaVuSans-20" transform="translate(362.056641 0)"/>
      <use xlink:href="#DejaVuSans-3d5" transform="translate(393.84375 0)"/>
      <use xlink:href="#DejaVuSans-73" transform="translate(459.810547 0)"/>
      <use xlink:href="#DejaVuSans-5f" transform="translate(511.910156 0)"/>
      <use xlink:href="#DejaVuSans-73" transform="translate(561.910156 0)"/>
      <use xlink:href="#DejaVuSans-74" transform="translate(614.009766 0)"/>
      <use xlink:href="#DejaVuSans-65" transform="translate(653.21875 0)"/>
      <use xlink:href="#DejaVuSans-70" transform="translate(714.742188 0)"/>
      <use xlink:href="#DejaVuSans-33" transform="translate(778.21875 0)"/>
      <use xlink:href="#DejaVuSans-36" transform="translate(841.841797 0)"/>
      <use xlink:href="#DejaVuSans-30" transform="translate(905.464844 0)"/>
      <use xlink:href="#DejaVuSans-b0" transform="translate(969.087891 0)"/>
     </g>
    </g>
    <g id="line2d_76">
     <g>
      <use xlink:href="#mbfa76734dc" x="372.278281" y="102.540937" style="fill: #9467bd; stroke: #ffffff; stroke-width: 0.75"/>
     </g>
    </g>
    <g id="text_23">
     <!-- Max from all methods -->
     <g transform="translate(404.678281 108.840937) scale(0.18 -0.18)">
      <defs>
       <path id="DejaVuSans-78" d="M 3513 3500 
L 2247 1797 
L 3578 0 
L 2900 0 
L 1881 1375 
L 863 0 
L 184 0 
L 1544 1831 
L 300 3500 
L 978 3500 
L 1906 2253 
L 2834 3500 
L 3513 3500 
z
" transform="scale(0.015625)"/>
      </defs>
      <use xlink:href="#DejaVuSans-4d"/>
      <use xlink:href="#DejaVuSans-61" transform="translate(86.279297 0)"/>
      <use xlink:href="#DejaVuSans-78" transform="translate(147.558594 0)"/>
      <use xlink:href="#DejaVuSans-20" transform="translate(206.738281 0)"/>
      <use xlink:href="#DejaVuSans-66" transform="translate(238.525391 0)"/>
      <use xlink:href="#DejaVuSans-72" transform="translate(273.730469 0)"/>
      <use xlink:href="#DejaVuSans-6f" transform="translate(312.59375 0)"/>
      <use xlink:href="#DejaVuSans-6d" transform="translate(373.775391 0)"/>
      <use xlink:href="#DejaVuSans-20" transform="translate(471.1875 0)"/>
      <use xlink:href="#DejaVuSans-61" transform="translate(502.974609 0)"/>
      <use xlink:href="#DejaVuSans-6c" transform="translate(564.253906 0)"/>
      <use xlink:href="#DejaVuSans-6c" transform="translate(592.037109 0)"/>
      <use xlink:href="#DejaVuSans-20" transform="translate(619.820312 0)"/>
      <use xlink:href="#DejaVuSans-6d" transform="translate(651.607422 0)"/>
      <use xlink:href="#DejaVuSans-65" transform="translate(749.019531 0)"/>
      <use xlink:href="#DejaVuSans-74" transform="translate(810.542969 0)"/>
      <use xlink:href="#DejaVuSans-68" transform="translate(849.751953 0)"/>
      <use xlink:href="#DejaVuSans-6f" transform="translate(913.130859 0)"/>
      <use xlink:href="#DejaVuSans-64" transform="translate(974.3125 0)"/>
      <use xlink:href="#DejaVuSans-73" transform="translate(1037.789062 0)"/>
     </g>
    </g>
   </g>
  </g>
 </g>
 <defs>
  <clipPath id="p5555e61825">
   <rect x="58.525625" y="177.381" width="558" height="443.52"/>
  </clipPath>
 </defs>
</svg>
